<svg width="342" height="4" viewBox="0 0 342 4" fill="none" xmlns="http://www.w3.org/2000/svg">
<path d="M341.019 2.76147C341.293 2.45872 339.872 2.13435 337.866 1.96135C335.056 1.76823 332.229 1.67435 329.399 1.68023C263.484 1.02067 196.939 2.09831 131.279 1.11798C111.872 0.829654 92.4276 0.357511 72.9458 0.541322C57.9497 0.681883 43.3959 1.20088 28.7674 1.62256C25.2474 1.72348 -8.39572 2.17399 1.97756 3.58681C4.03475 3.80123 6.1179 3.92174 8.20776 3.94722C13.2231 4.09139 18.2571 4.23916 23.3783 4.30764C36.1689 4.44459 48.8723 4.01571 61.6255 3.82108C82.1353 3.51113 102.844 3.82108 123.417 4.04454C193.195 4.80861 263.596 4.61038 333.094 3.45706C335.96 3.41021 339.262 3.32371 340.57 2.98492C340.757 2.93944 340.913 2.86128 341.019 2.76147Z" fill="#0C2945"/>
</svg>
