<svg width="40" height="40" viewBox="0 0 40 40" fill="none" xmlns="http://www.w3.org/2000/svg">
<g clip-path="url(#clip0_93_1768)">
<path d="M35.3496 -0.00292969H4.65044C3.41707 -0.00292969 2.23421 0.487026 1.36209 1.35915C0.489961 2.23128 0 3.41413 0 4.6475V35.3466C0 36.58 0.489961 37.7629 1.36209 38.635C2.23421 39.5071 3.41707 39.9971 4.65044 39.9971H35.3496C36.5829 39.9971 37.7658 39.5071 38.6379 38.635C39.51 37.7629 40 36.58 40 35.3466V4.65043C40.0004 4.03948 39.8804 3.43444 39.6469 2.86989C39.4133 2.30533 39.0708 1.79233 38.639 1.36019C38.2071 0.928045 37.6943 0.585236 37.1299 0.351346C36.5655 0.117457 35.9605 -0.00292981 35.3496 -0.00292969ZM38.1392 35.3466C38.1387 36.0864 37.8447 36.7958 37.3217 37.319C36.7986 37.8422 36.0894 38.1365 35.3496 38.1373H4.65044C3.91055 38.1365 3.20119 37.8422 2.67801 37.3191C2.15483 36.7959 1.86056 36.0865 1.85979 35.3466V4.65043C1.86056 3.91054 2.15483 3.20118 2.67801 2.678C3.20119 2.15482 3.91055 1.86056 4.65044 1.85978H35.3496C36.0894 1.86056 36.7986 2.15485 37.3217 2.67806C37.8447 3.20127 38.1387 3.91063 38.1392 4.65043V35.3466Z" fill="#BE4C40"/>
<path d="M29.8253 27.5484L29.2376 28.6298C29.0185 29.0353 28.696 29.3755 28.3029 29.6157C27.9098 29.856 27.4601 29.9877 26.9997 29.9974C24.578 30.0453 19.7389 29.4605 15.1449 24.8627C10.524 20.2375 9.95007 15.4068 10.0078 12.9923C10.0191 12.5334 10.151 12.0857 10.3904 11.6941C10.6298 11.3026 10.9682 10.9813 11.3714 10.7625L12.4619 10.1706C12.7279 10.0258 13.0335 9.97104 13.3332 10.0145C13.6328 10.058 13.9103 10.1974 14.1243 10.4118L17.0749 13.365C17.2053 13.4953 17.3087 13.6501 17.3793 13.8205C17.4498 13.9908 17.4862 14.1734 17.4862 14.3578C17.4862 14.5422 17.4498 14.7248 17.3793 14.8952C17.3087 15.0656 17.2053 15.2203 17.0749 15.3507L16.4653 15.9608C16.3127 16.1129 16.207 16.3056 16.1609 16.5161C16.1148 16.7266 16.1301 16.9459 16.2051 17.1479C16.5222 18.0035 17.2607 19.5279 18.8695 21.138C20.4782 22.7481 22.0014 23.4872 22.8562 23.8046C23.0582 23.8792 23.2773 23.8943 23.4875 23.848C23.6978 23.8017 23.8903 23.696 24.0423 23.5434L24.652 22.9332C24.7823 22.8028 24.937 22.6993 25.1072 22.6287C25.2775 22.5581 25.4599 22.5218 25.6442 22.5218C25.8285 22.5218 26.011 22.5581 26.1812 22.6287C26.3515 22.6993 26.5061 22.8028 26.6364 22.9332L29.5871 25.8863C29.8004 26.1008 29.9387 26.3784 29.9817 26.6778C30.0246 26.9773 29.9697 27.2827 29.8253 27.5484Z" fill="#BE4C40"/>
</g>
<defs>
<clipPath id="clip0_93_1768">
<rect width="40" height="40" fill="white"/>
</clipPath>
</defs>
</svg>
