<svg width="360" height="4" viewBox="0 0 360 4" fill="none" xmlns="http://www.w3.org/2000/svg">
<path d="M359.964 2.26147C360.254 1.95872 358.754 1.63435 356.637 1.46135C353.671 1.26823 350.686 1.17435 347.699 1.18023C278.122 0.520673 207.88 1.59831 138.572 0.617985C118.087 0.329654 97.5625 -0.142489 76.9983 0.0413218C61.1691 0.181883 45.8068 0.700878 30.3656 1.12256C26.65 1.22348 -8.86215 1.67399 2.08742 3.08681C4.2589 3.30123 6.45779 3.42174 8.66374 3.44722C13.9577 3.59139 19.2714 3.73916 24.6771 3.80764C38.1783 3.94459 51.5874 3.51571 65.0491 3.32108C86.6984 3.01113 108.558 3.32108 130.273 3.54454C203.928 4.30861 278.24 4.11038 351.599 2.95706C354.624 2.91021 358.11 2.82371 359.491 2.48492C359.687 2.43944 359.853 2.36128 359.964 2.26147Z" fill="white"/>
</svg>
