<svg width="40" height="40" viewBox="0 0 40 40" fill="none" xmlns="http://www.w3.org/2000/svg">
<g clip-path="url(#clip0_93_1765)">
<path d="M35.3496 -0.00292969H4.65044C3.41707 -0.00292969 2.23421 0.487026 1.36209 1.35915C0.489961 2.23128 0 3.41413 0 4.6475V35.3466C0 36.58 0.489961 37.7629 1.36209 38.635C2.23421 39.5071 3.41707 39.9971 4.65044 39.9971H35.3496C36.5829 39.9971 37.7658 39.5071 38.6379 38.635C39.51 37.7629 40 36.58 40 35.3466V4.65043C40.0004 4.03948 39.8804 3.43444 39.6469 2.86989C39.4133 2.30533 39.0708 1.79233 38.639 1.36019C38.2071 0.928045 37.6943 0.585236 37.1299 0.351346C36.5655 0.117457 35.9605 -0.00292981 35.3496 -0.00292969ZM38.1392 35.3466C38.1387 36.0864 37.8447 36.7958 37.3217 37.319C36.7986 37.8422 36.0894 38.1365 35.3496 38.1373H4.65044C3.91055 38.1365 3.20119 37.8422 2.67801 37.3191C2.15483 36.7959 1.86056 36.0865 1.85979 35.3466V4.65043C1.86056 3.91054 2.15483 3.20118 2.67801 2.678C3.20119 2.15482 3.91055 1.86056 4.65044 1.85978H35.3496C36.0894 1.86056 36.7986 2.15485 37.3217 2.67806C37.8447 3.20127 38.1387 3.91063 38.1392 4.65043V35.3466Z" fill="#BE4C40"/>
<path d="M22.8444 19.7846C26.0152 17.3353 28.8803 14.8792 30.2383 13.6929C30.2765 13.6603 30.323 13.6391 30.3724 13.6316C30.4219 13.624 30.4725 13.6306 30.5185 13.6504C30.5645 13.6702 30.6041 13.7025 30.633 13.7438C30.6618 13.785 30.6788 13.8335 30.6819 13.8839C30.7453 15.1363 30.8334 17.3493 30.8334 19.9998C30.8334 22.6503 30.7453 24.8632 30.6819 26.1156C30.6788 26.166 30.6618 26.2145 30.633 26.2558C30.6041 26.297 30.5645 26.3294 30.5185 26.3492C30.4725 26.369 30.4219 26.3755 30.3724 26.368C30.323 26.3605 30.2765 26.3392 30.2383 26.3066C28.8803 25.1196 26.0121 22.6591 22.8444 20.2163C22.8117 20.1909 22.7851 20.1582 22.7669 20.1208C22.7486 20.0833 22.7391 20.0422 22.7391 20.0005C22.7391 19.9587 22.7486 19.9176 22.7669 19.8801C22.7851 19.8427 22.8117 19.81 22.8444 19.7846ZM29.7388 13.4062C27.9783 14.9385 24.077 18.2659 20.157 21.1224C20.1112 21.1555 20.0563 21.1733 20 21.1733C19.9437 21.1733 19.8888 21.1555 19.843 21.1224C15.9231 18.2656 12.0217 14.9385 10.2626 13.4062C10.2226 13.3709 10.1938 13.3244 10.1798 13.2725C10.1659 13.2207 10.1674 13.1659 10.1843 13.115C10.2011 13.064 10.2325 13.0192 10.2744 12.9862C10.3164 12.9532 10.3671 12.9335 10.4201 12.9295C12.1067 12.8171 15.4019 12.6489 19.9999 12.6489C24.5978 12.6489 27.8954 12.8171 29.5796 12.9295C29.6327 12.9332 29.6837 12.9527 29.7259 12.9856C29.7681 13.0185 29.7997 13.0632 29.8167 13.1142C29.8337 13.1652 29.8354 13.2202 29.8216 13.2721C29.8077 13.3241 29.7789 13.3708 29.7388 13.4062ZM9.7607 26.3066C9.72248 26.3389 9.67615 26.3599 9.62684 26.3673C9.57752 26.3746 9.52716 26.3681 9.48132 26.3483C9.43549 26.3285 9.39598 26.2963 9.36717 26.2552C9.33837 26.2141 9.3214 26.1658 9.31814 26.1156C9.25473 24.8632 9.16669 22.6503 9.16669 19.9998C9.16669 17.3493 9.25371 15.1363 9.31814 13.8829C9.32126 13.8325 9.33819 13.784 9.36706 13.7427C9.39592 13.7015 9.43556 13.6692 9.48158 13.6493C9.52759 13.6295 9.57815 13.623 9.62762 13.6305C9.67709 13.638 9.72351 13.6593 9.76171 13.6919C11.1194 14.8782 13.9835 17.3353 17.1556 19.7836C17.1881 19.809 17.2143 19.8416 17.2324 19.8789C17.2504 19.9162 17.2598 19.9571 17.2598 19.9986C17.2598 20.0401 17.2504 20.081 17.2324 20.1183C17.2143 20.1555 17.1881 20.1881 17.1556 20.2136C13.9876 22.6591 11.1197 25.1196 9.7607 26.3066ZM10.2626 26.5937C11.7043 25.3372 14.5826 22.8784 17.7233 20.4666C17.77 20.4313 17.8267 20.4123 17.8851 20.4123C17.9434 20.4123 18.0001 20.4313 18.0468 20.4666C18.6415 20.9168 19.2429 21.3628 19.8433 21.7966C19.8894 21.8299 19.9446 21.8477 20.0012 21.8477C20.0578 21.8477 20.113 21.8299 20.1591 21.7966C20.7598 21.3628 21.3613 20.9168 21.9559 20.4666C22.0026 20.4313 22.0594 20.4123 22.1177 20.4123C22.176 20.4123 22.2327 20.4313 22.2794 20.4666C25.4201 22.8784 28.2981 25.3358 29.7401 26.5937C29.7802 26.629 29.809 26.6755 29.8229 26.7274C29.8368 26.7792 29.8353 26.834 29.8185 26.8849C29.8016 26.9359 29.7703 26.9807 29.7283 27.0137C29.6863 27.0466 29.6356 27.0664 29.5826 27.0704C27.896 27.1828 24.6008 27.3513 20.0029 27.3513C15.405 27.3513 12.1074 27.1811 10.4215 27.0704C10.3683 27.0666 10.3175 27.0471 10.2753 27.0142C10.2331 26.9813 10.2016 26.9365 10.1846 26.8855C10.1676 26.8345 10.1659 26.7796 10.1798 26.7277C10.1937 26.6757 10.2225 26.6291 10.2626 26.5937Z" fill="#BE4C40"/>
</g>
<defs>
<clipPath id="clip0_93_1765">
<rect width="40" height="40" fill="white"/>
</clipPath>
</defs>
</svg>
