<svg width="40" height="40" viewBox="0 0 40 40" fill="none" xmlns="http://www.w3.org/2000/svg">
<g clip-path="url(#clip0_93_1760)">
<path d="M13.1531 15.4229C14.5322 15.4229 15.6501 14.3049 15.6501 12.9259C15.6501 11.5469 14.5322 10.429 13.1531 10.429C11.7741 10.429 10.6562 11.5469 10.6562 12.9259C10.6562 14.3049 11.7741 15.4229 13.1531 15.4229Z" fill="#BE4C40"/>
<path d="M15.048 17.0864H11.2592C11.1563 17.0864 11.0728 17.1699 11.0728 17.2728V29.3838C11.0728 29.4868 11.1563 29.5702 11.2592 29.5702H15.048C15.151 29.5702 15.2344 29.4868 15.2344 29.3838V17.2728C15.2344 17.1699 15.151 17.0864 15.048 17.0864Z" fill="#BE4C40"/>
<path d="M29.3828 21.6646V28.7388C29.382 28.9593 29.2941 29.1705 29.1382 29.3264C28.9823 29.4824 28.771 29.5703 28.5505 29.5711H26.0536C25.833 29.5703 25.6218 29.4824 25.4659 29.3264C25.31 29.1705 25.222 28.9593 25.2212 28.7388V22.9125C25.2095 22.3685 24.9851 21.8507 24.5961 21.4701C24.2072 21.0895 23.6846 20.8763 23.1404 20.8763C22.5963 20.8763 22.0737 21.0895 21.6848 21.4701C21.2958 21.8507 21.0714 22.3685 21.0597 22.9125V28.7388C21.0591 28.9594 20.9713 29.1708 20.8153 29.3267C20.6593 29.4827 20.4479 29.5706 20.2273 29.5711H17.7314C17.5108 29.5706 17.2994 29.4827 17.1434 29.3267C16.9874 29.1708 16.8996 28.9594 16.899 28.7388V17.9196C16.8993 17.699 16.9871 17.4874 17.1431 17.3314C17.2991 17.1753 17.5107 17.0876 17.7314 17.0873H20.2254C20.446 17.0876 20.6576 17.1753 20.8136 17.3314C20.9697 17.4874 21.0574 17.699 21.0577 17.9196V18.4514C21.89 17.3781 23.2678 16.6707 24.8036 16.6707C27.1025 16.6707 29.3828 18.3353 29.3828 21.6646Z" fill="#BE4C40"/>
<path d="M35.3496 -0.00292969H4.65044C3.41707 -0.00292969 2.23421 0.487026 1.36209 1.35915C0.489961 2.23128 0 3.41413 0 4.6475V35.3466C0 36.58 0.489961 37.7629 1.36209 38.635C2.23421 39.5071 3.41707 39.9971 4.65044 39.9971H35.3496C36.5829 39.9971 37.7658 39.5071 38.6379 38.635C39.51 37.7629 40 36.58 40 35.3466V4.65043C40.0004 4.03948 39.8804 3.43444 39.6469 2.86989C39.4133 2.30533 39.0708 1.79233 38.639 1.36019C38.2071 0.928045 37.6943 0.585236 37.1299 0.351346C36.5655 0.117457 35.9605 -0.00292981 35.3496 -0.00292969ZM38.1392 35.3466C38.1387 36.0864 37.8447 36.7958 37.3217 37.319C36.7986 37.8422 36.0894 38.1365 35.3496 38.1373H4.65044C3.91055 38.1365 3.20119 37.8422 2.67801 37.3191C2.15483 36.7959 1.86056 36.0865 1.85979 35.3466V4.65043C1.86056 3.91054 2.15483 3.20118 2.67801 2.678C3.20119 2.15482 3.91055 1.86056 4.65044 1.85978H35.3496C36.0894 1.86056 36.7986 2.15485 37.3217 2.67806C37.8447 3.20127 38.1387 3.91063 38.1392 4.65043V35.3466Z" fill="#BE4C40"/>
</g>
<defs>
<clipPath id="clip0_93_1760">
<rect width="40" height="40" fill="white"/>
</clipPath>
</defs>
</svg>
