<svg width="24" height="25" viewBox="0 0 24 25" fill="none" xmlns="http://www.w3.org/2000/svg">
<path d="M5.29289 17.2929C4.90237 17.6834 4.90237 18.3166 5.29289 18.7071C5.68342 19.0976 6.31658 19.0976 6.70711 18.7071L5.29289 17.2929ZM18.3137 6.68629C18.3137 6.13401 17.866 5.68629 17.3137 5.68629L8.31371 5.68629C7.76142 5.68629 7.31371 6.13401 7.31371 6.68629C7.31371 7.23858 7.76142 7.68629 8.31371 7.68629L16.3137 7.68629L16.3137 15.6863C16.3137 16.2386 16.7614 16.6863 17.3137 16.6863C17.866 16.6863 18.3137 16.2386 18.3137 15.6863L18.3137 6.68629ZM6.70711 18.7071L18.0208 7.3934L16.6066 5.97918L5.29289 17.2929L6.70711 18.7071Z" fill="#BE4C40"/>
</svg>
