<svg width="200" height="66" viewBox="0 0 200 66" fill="none" xmlns="http://www.w3.org/2000/svg">
<g clip-path="url(#clip0_58_1095)">
<path d="M77.4181 24.2944C78.1268 24.2944 77.809 24.7649 77.4875 25.0353C76.7643 25.7186 76.1428 26.5048 75.6426 27.3693C75.1181 28.0913 74.895 28.9936 75.0215 29.8811C75.1421 30.622 74.9302 30.9443 74.2032 31.0777C73.1693 31.2666 72.6651 31.8964 72.9793 32.9893C73.1401 33.5487 72.877 33.8229 72.4825 34.1341C70.7837 35.4677 70.5974 36.3865 71.5728 38.3648C71.6568 38.5352 71.7664 38.6982 71.8432 38.8723C71.9637 39.1354 72.2815 39.5281 71.9345 39.6689C71.5874 39.8096 71.5692 39.2984 71.4632 39.0279C71.4466 38.9534 71.4208 38.8812 71.3865 38.8131C69.9956 37.0822 68.8857 35.1375 68.0985 33.0523C67.7989 32.241 66.8089 32.3113 66.0527 32.5077C65.4024 32.6596 65.2709 33.2746 65.1467 33.8525C65.0387 34.4247 65.0841 35.0157 65.2782 35.5641C66.703 39.906 69.0155 43.4254 73.5785 44.9703C75.7545 45.6983 77.7376 46.9211 79.3763 48.5453C79.5171 48.7283 79.6906 48.8829 79.8877 49.001C81.8057 49.7419 82.445 51.0756 81.8788 53.0761C81.7582 53.5058 81.7728 53.9615 81.5134 54.3764C80.8741 55.4138 81.075 56.3844 82.2003 56.8215C84.5402 57.7349 87.0043 58.2797 89.5069 58.4368C91.2604 58.4775 92.8935 57.907 94.5557 57.518C95.2253 57.346 95.8491 57.0259 96.3824 56.5807C96.538 56.484 96.6714 56.3546 96.7736 56.2012C96.8758 56.0479 96.9444 55.8741 96.9749 55.6916C97.0053 55.5091 96.9969 55.3221 96.9502 55.1432C96.9034 54.9643 96.8194 54.7976 96.7039 54.6543C96.6089 54.5061 96.4627 54.4061 96.3604 54.2653C96.2582 54.1245 96.3422 53.9393 96.3604 53.7837C96.3787 53.6281 96.4006 53.4132 96.4079 53.2169C96.4079 52.8464 96.4079 52.4759 96.4079 52.0758C96.3512 51.3142 96.3806 50.5486 96.4956 49.7938C96.5243 49.6409 96.5621 49.49 96.6089 49.3418C97.6464 45.9075 97.8839 42.5363 96.1632 39.1539C94.2622 35.3273 91.7404 31.8521 88.7031 28.8734C88.4766 28.6548 88.0236 28.3696 88.2355 28.051C88.4474 27.7324 88.8639 28.0806 89.1598 28.1991C90.6211 28.7919 91.4796 30.1404 92.6195 31.1407C92.9848 31.4667 93.2771 31.8816 93.6168 32.2521C93.7922 32.4336 93.9822 32.73 94.2781 32.5114C94.3628 32.4307 94.4171 32.3225 94.4318 32.2056C94.4465 32.0886 94.4205 31.9702 94.3584 31.8705C93.4122 29.7329 91.9875 27.9509 89.8978 26.9914C88.6337 26.4098 87.4464 25.5873 86.0435 25.3021C85.6344 25.2206 85.4992 24.7945 85.2763 24.4871C84.7283 23.7461 84.0927 23.4794 83.3949 24.2537C82.8615 24.8464 82.6642 24.576 82.2989 24.0388C81.371 22.531 81.349 22.5569 79.7416 23.246C78.8831 23.6165 76.3477 22.7866 75.9604 21.9382M85.174 31.789C85.2288 32.0298 85.6636 32.2336 85.4407 32.4595C85.2179 32.6855 84.911 32.3484 84.6662 32.215C83.2634 31.4741 81.9007 30.6257 80.3809 30.133C79.8366 29.9589 79.6503 29.6403 79.7635 29.1475C79.7891 28.3214 81.3089 26.3061 82.0505 26.1356C82.4998 26.0319 82.9163 26.1764 82.9675 26.721C83.1099 28.6733 84.7356 29.9626 85.1521 31.7927L85.174 31.789ZM84.1219 32.9226L84.1803 32.956C84.3082 33.0264 84.4361 33.1004 84.5457 33.1782C84.7808 33.304 84.9702 33.5026 85.0864 33.7451C85.1008 33.7731 85.1083 33.8042 85.1083 33.8358C85.1083 33.8674 85.1008 33.8986 85.0864 33.9266C85.0698 33.9508 85.0471 33.97 85.0206 33.9822C84.8921 34.0498 84.7423 34.0632 84.6041 34.0192C84.4675 33.9775 84.3423 33.9039 84.2388 33.8043C84.0464 33.6354 83.9079 33.4123 83.8406 33.1634C83.8041 33.0264 83.8406 32.8633 84.0269 32.893L84.1219 32.9226ZM83.1099 55.7138C83.2232 55.373 83.6579 55.536 83.8954 55.636C85.8024 56.4177 87.7862 56.5956 89.8137 56.5474C91.6404 56.5029 93.4451 56.3547 95.0855 55.436C95.3266 55.2989 95.586 54.9062 95.849 55.2878C96.112 55.6694 95.7138 55.8324 95.4837 55.9954C95.2096 56.2026 94.9067 56.3674 94.5849 56.4844C92.656 57.0586 90.7161 57.5958 88.0309 57.5958C86.5155 57.3641 85.0465 56.8876 83.6798 56.1843C83.4533 56.0361 83.004 56.0102 83.1099 55.7138ZM94.8553 52.5426C94.5756 52.7268 94.2719 52.8702 93.9529 52.9687C93.5036 53.1613 93.0433 53.3391 92.5793 53.4799C91.8486 53.717 91.118 53.9208 90.4165 54.1468C90.0938 54.2737 89.756 54.3571 89.4119 54.395C88.5975 54.377 87.7877 54.2677 86.997 54.069C86.0462 53.8937 85.1166 53.6155 84.2242 53.2391C83.948 53.1134 83.688 52.9542 83.4497 52.7649C83.333 52.6938 83.2478 52.5799 83.2117 52.4467C83.1757 52.3136 83.1915 52.1715 83.2561 52.0499C83.4424 51.7239 83.6981 51.9239 83.9429 52.0499C85.3767 52.6373 86.8886 53.0056 88.4291 53.1428C90.4784 53.396 92.5568 53.0704 94.4352 52.2018C94.5581 52.1144 94.6995 52.0573 94.848 52.0351C95.1804 52.0351 95.0854 52.3463 94.9101 52.5056L94.8553 52.5426ZM73.3958 34.9194C73.9328 34.7231 74.4699 34.549 74.9996 34.3156C75.4856 34.089 76.0188 33.9861 76.553 34.0158C77.0871 34.0455 77.606 34.2069 78.0647 34.486C78.4232 34.707 78.8221 34.8519 79.2374 34.912C80.2677 35.0343 80.0704 36.0864 80.5526 36.6236C80.728 36.8199 80.348 36.8829 80.2129 36.8125C79.8094 36.6015 79.4179 36.3677 79.0402 36.1124C78.5835 35.8049 78.0684 35.4566 77.5788 35.853C77.1162 36.2235 76.5812 36.49 76.0094 36.635C75.4375 36.78 74.8418 36.8001 74.2616 36.694C74.068 36.6681 73.8671 36.6681 73.7794 36.8866C73.6917 37.1052 73.8561 37.3349 74.0497 37.446C74.2681 37.5968 74.5184 37.6933 74.7804 37.7276C75.8764 37.7276 76.6071 38.3833 77.1952 39.2391C77.2806 39.4128 77.4162 39.556 77.584 39.6493C77.7518 39.7427 77.9438 39.7818 78.1341 39.7615C78.8113 39.632 79.5046 39.6144 80.1873 39.7096C80.3809 39.7429 80.5818 39.7096 80.6659 39.5096C80.7499 39.3095 80.6147 39.0687 80.4101 38.939C80.1321 38.7694 79.8175 38.6709 79.4935 38.6522C79.1695 38.6335 78.8459 38.695 78.5506 38.8316C78.0976 39.002 77.9222 38.7093 77.7798 38.3796C77.6373 38.0499 77.3048 37.8091 77.5533 37.4349C77.725 37.1756 78.0903 36.8459 78.2839 37.0422C79.179 37.8943 80.9472 37.3719 81.3125 39.0502C81.3892 39.4206 81.7363 39.2836 81.992 39.2058C83.4541 38.7897 84.9418 38.4729 86.4454 38.2574C86.8838 38.187 87.5962 38.1759 87.5085 37.4868C87.4318 36.8829 86.7778 37.0015 86.365 37.0496C84.7649 37.2349 83.2962 37.2052 82.3866 35.5048C82.2149 35.1862 81.6998 35.0491 81.3417 34.8379C81.0495 34.6638 80.7426 34.5082 80.454 34.3193C80.275 34.2007 79.99 34.0711 80.1325 33.8006C80.3188 33.4561 80.5892 33.6747 80.8157 33.8006C81.0422 33.9266 81.1993 34.0488 81.3892 34.1711C82.7702 35.1158 84.2169 35.653 85.8864 34.9676C86.4089 34.7564 86.8838 35.0491 87.2528 35.3381C88.8858 36.7125 90.6796 37.9054 91.929 39.7059C92.0824 39.9282 92.1884 40.4024 92.561 40.1949C92.9337 39.9875 92.7145 39.5503 92.561 39.265C91.8304 37.7609 90.939 36.3828 89.4849 35.4863C88.8347 35.0862 88.188 34.6861 87.5341 34.2934C87.4311 34.2422 87.3451 34.1617 87.2867 34.0616C87.2283 33.9616 87.2 33.8464 87.2053 33.7302C87.2053 33.5043 87.3916 33.4228 87.6145 33.4487C87.8373 33.4746 88.1953 33.6673 88.3049 33.3079C88.4145 32.9486 88.0528 32.7967 87.8227 32.6188C87.4026 32.2891 86.9569 31.989 86.555 31.6371C86.3358 31.4445 85.9705 31.0629 86.1897 30.8962C87.3295 29.8514 86.0508 29.7848 85.6344 29.4143C85.1969 29.1034 84.8336 28.697 84.5713 28.2251C84.363 27.7324 83.6725 27.1137 84.184 26.7247C84.6955 26.3357 85.5175 26.6247 86.0618 27.0952C86.3771 27.4293 86.6654 27.7885 86.924 28.1695C87.7058 29.1142 88.4328 30.1145 89.2913 30.9814C90.6132 32.2618 91.7773 33.6998 92.7583 35.264C95.0745 39.1243 96.7769 43.1476 95.7211 47.8599C95.4033 49.2455 94.9357 50.3717 93.4999 51.0904C91.9838 51.8313 90.4458 51.5238 88.926 51.7017C88.5489 51.7471 88.1695 51.7706 87.7898 51.7721C86.8874 51.7313 85.9632 51.9202 85.101 51.4646C84.9402 51.3794 84.6918 51.3497 84.7356 51.1163C84.7795 50.8829 85.0316 50.9459 85.2069 50.9459C85.9668 50.9459 86.734 51.0052 87.4829 50.9237C88.0054 50.8681 88.9443 51.2052 88.9443 50.6384C88.9443 50.0716 87.9506 50.1198 87.377 50.0753C84.7429 49.928 82.2108 48.9935 80.0996 47.3894C79.055 46.6119 77.9562 45.9123 76.8116 45.2963C74.5868 44.07 72.2304 43.1216 70.1809 41.5212C67.7661 39.6133 66.6701 37.1608 66.3815 34.2044C66.3522 33.9118 66.2938 33.5117 66.6701 33.4153C67.0464 33.319 67.24 33.6228 67.3532 33.9192C67.7515 34.9565 68.252 35.9642 68.2008 37.1274C68.2008 37.3682 68.0729 37.6794 68.4894 37.7498C70.0823 38.0203 70.4476 38.4574 70.6449 40.3431C70.6778 40.6543 70.8421 40.7432 71.0979 40.7136C72.7711 40.4542 74.0205 41.6916 75.5366 42.0065C75.7522 42.051 75.9641 42.1732 75.902 42.4844C75.7303 43.5365 76.3769 43.1216 76.7422 42.8993C77.4662 42.4556 78.3209 42.2838 79.1571 42.414C81.2942 42.7141 83.4314 43.0364 85.554 43.4328C86.5002 43.6106 87.2674 44.2404 88.0127 44.848C88.3378 45.1147 88.6556 45.3926 88.9954 45.6371C89.1379 45.7408 89.4082 45.8742 89.4886 45.8112C89.7224 45.6334 89.5617 45.3926 89.4338 45.2074C88.7287 44.1997 88.0894 43.0623 86.8765 42.6548C83.7785 41.6175 80.6366 40.8025 77.3268 41.4582C77.0009 41.5356 76.6593 41.5058 76.3513 41.373C74.3749 40.5691 73.4287 38.7797 72.4386 37.0941C71.7847 35.979 72.1719 35.3677 73.3958 34.9194ZM82.0943 36.4902C82.1862 36.533 82.2722 36.5878 82.35 36.6532C82.395 36.69 82.4324 36.7355 82.46 36.787C82.4875 36.8385 82.5048 36.895 82.5108 36.9533C82.5126 36.9668 82.5126 36.9805 82.5108 36.9941C82.5058 37.0096 82.497 37.0237 82.4852 37.0348C82.4293 37.0805 82.3597 37.1055 82.2879 37.1055C82.2162 37.1055 82.1465 37.0805 82.0907 37.0348C81.9778 36.9386 81.8974 36.8091 81.8605 36.6644C81.802 36.4939 81.8788 36.368 82.0578 36.4569L82.0943 36.4902ZM78.9196 30.9703C80.2567 31.011 81.3198 31.5297 82.3829 32.0335C82.993 32.3225 82.9309 33.0708 82.7738 33.445C82.5692 33.9303 82.1272 33.3931 81.8459 33.2375C81.2869 32.9263 80.7937 32.4966 80.2457 32.1558C79.9644 31.9816 79.5151 31.6556 79.4859 32.3595C79.4566 33.3338 78.7552 33.3857 78.2072 33.1857C77.0929 32.7781 76.0152 32.5744 74.901 33.0338C74.6306 33.1412 74.3785 33.1375 74.247 32.8004C74.2143 32.7407 74.1964 32.6738 74.195 32.6055C74.1936 32.5372 74.2087 32.4696 74.2389 32.4086C74.2692 32.3476 74.3137 32.295 74.3686 32.2555C74.4235 32.2159 74.4871 32.1906 74.5539 32.1817C76.0591 31.826 77.4765 31.1259 78.9196 30.9703ZM80.0156 25.228C80.3809 25.1057 80.8778 24.4871 81.0531 24.802C81.3052 25.2539 80.6293 25.5799 80.3042 25.9134C80.071 26.1674 79.7967 26.3791 79.4932 26.5395C79.1768 26.6776 78.9099 26.9108 78.7283 27.2075C78.5467 27.5043 78.4592 27.8504 78.4775 28.1991C78.4857 28.5853 78.4551 28.9714 78.3862 29.3513C78.1999 30.2256 77.4035 30.0922 76.8189 30.196C76.3952 30.2664 76.4536 29.8255 76.5048 29.5106C76.5778 27.3915 77.7432 25.9578 80.001 25.228H80.0156Z" fill="#12426B"/>
<path d="M93.595 46.1003C93.7434 46.1176 93.8821 46.184 93.9895 46.2892C94.1182 46.4371 94.2108 46.6134 94.2599 46.8042C94.3855 47.16 94.4328 47.5393 94.3987 47.9156C94.3925 48.0216 94.3556 48.1234 94.2928 48.2083C94.2129 48.2784 94.1093 48.3146 94.0038 48.309C93.8982 48.3035 93.7988 48.2568 93.7265 48.1786C93.5881 48.0126 93.5176 47.7992 93.5292 47.5822C93.5438 47.3676 93.5438 47.1522 93.5292 46.9376C93.5 46.7338 93.3283 46.3819 93.4379 46.1966C93.4517 46.1665 93.474 46.1413 93.502 46.1241C93.5299 46.107 93.5623 46.0987 93.595 46.1003Z" fill="#12426B"/>
<path d="M82.9054 47.7524C82.6593 47.752 82.4141 47.7221 82.1748 47.6635C82.0679 47.6432 81.9668 47.5989 81.8789 47.5338C81.8227 47.4833 81.7803 47.4189 81.756 47.3468C81.7317 47.2747 81.7262 47.1975 81.74 47.1226C81.7766 46.9226 81.9337 46.8781 82.1054 46.8855C82.2771 46.8929 82.4999 46.93 82.6972 46.93C82.8945 46.93 83.0406 46.904 83.2087 46.93C83.3817 46.9311 83.5483 46.9971 83.6763 47.1152C83.7369 47.1769 83.7741 47.2582 83.7814 47.3449C83.7888 47.4316 83.7658 47.5182 83.7165 47.5894C83.6252 47.677 83.5059 47.7283 83.3804 47.7339C83.2227 47.7511 83.064 47.7573 82.9054 47.7524Z" fill="#12426B"/>
<path d="M94.2635 44.4516C94.2918 44.4601 94.3189 44.4726 94.3438 44.4886C94.5079 44.5944 94.6474 44.7349 94.7527 44.9005C94.858 45.0662 94.9267 45.253 94.9539 45.4482C94.98 45.5702 94.98 45.6966 94.9539 45.8186C94.9465 45.8588 94.9297 45.8966 94.9049 45.9288C94.8801 45.9611 94.8481 45.9868 94.8115 46.0039C94.7711 46.0127 94.7293 46.0126 94.689 46.0037C94.6487 45.9947 94.6107 45.9771 94.5777 45.952C94.3894 45.8128 94.2417 45.6247 94.1502 45.4074C94.0771 45.2555 94.0187 45.0999 93.9602 44.9443C93.9251 44.8673 93.9041 44.7845 93.8981 44.6998C93.9054 44.4664 94.0881 44.396 94.2635 44.4516Z" fill="#12426B"/>
<path d="M85.207 48.6008C85.0847 48.6073 84.9622 48.5998 84.8416 48.5785C84.7024 48.5588 84.5738 48.4922 84.4763 48.3896C84.4333 48.3388 84.4076 48.2754 84.403 48.2087C84.3984 48.1419 84.4151 48.0755 84.4507 48.0191C84.5347 47.9006 84.7393 47.9006 84.8708 47.8895C85.1127 47.8487 85.3596 47.8487 85.6015 47.8895C85.6567 47.899 85.7084 47.9233 85.7513 47.9598C85.8028 48.0148 85.8316 48.0878 85.8317 48.1636C85.8387 48.2305 85.8286 48.2981 85.8024 48.36C85.761 48.4207 85.7067 48.4711 85.6435 48.5077C85.5802 48.5442 85.5097 48.5659 85.4371 48.5711L85.207 48.6008Z" fill="#12426B"/>
<path d="M80.4065 46.2335C80.2539 46.2055 80.1084 46.1463 79.9791 46.0594C79.9102 46.0154 79.8565 45.9506 79.8256 45.8742C79.7599 45.6741 79.9608 45.5889 80.1216 45.6075L80.4211 45.6408C80.4898 45.639 80.558 45.6523 80.621 45.6798C80.6841 45.7073 80.7405 45.7483 80.7865 45.8001C80.8233 45.8599 80.8411 45.9297 80.8376 46.0002C80.8414 46.0586 80.8274 46.1168 80.7974 46.1669C80.7576 46.2176 80.7 46.2507 80.6367 46.2595C80.5751 46.2706 80.512 46.2706 80.4504 46.2595L80.4065 46.2335Z" fill="#12426B"/>
<path d="M94.7311 43.6663C94.6311 43.6536 94.5369 43.6111 94.4608 43.544C94.3396 43.4506 94.2502 43.321 94.2051 43.1735C94.1503 42.9513 94.3001 42.8401 94.5046 42.892C94.6019 42.9173 94.6927 42.9634 94.7708 43.0273C94.849 43.0912 94.9127 43.1714 94.9576 43.2625C94.9808 43.3038 94.9947 43.3497 94.9985 43.3971C95.0023 43.4444 94.9958 43.4921 94.9796 43.5366C94.9561 43.5813 94.9198 43.6177 94.8754 43.6409C94.831 43.6641 94.7806 43.6729 94.7311 43.6663Z" fill="#12426B"/>
<path d="M75.723 22.2977C75.6901 22.1125 75.2444 22.5867 74.9923 22.6089C74.7402 22.6312 72.9428 21.127 72.888 21.0344C72.8332 20.9418 72.3291 21.7346 72.0916 21.5383C71.8541 21.3419 70.1554 20.0564 70.1554 20.0564L69.6001 19.8934C69.6001 19.8934 69.5781 19.9749 69.3151 19.986C69.0521 19.9971 68.1643 18.9709 68.0364 18.7375C67.9086 18.5041 67.3935 18.4782 67.3935 18.4782L65.2417 16.7852L65.0736 15.8627L65.2672 15.4922L63.4808 13.9214L63.5173 13.4954L66.2061 10.7095L68.1314 12.4099L68.9644 11.606L71.2623 13.5028L71.4632 13.9992L72.2341 14.3141C72.2341 14.3141 73.0378 14.8106 73.1291 15.0995C73.1862 15.3055 73.212 15.5191 73.2059 15.733V16.0776L73.8963 16.3665C74.193 16.5033 74.459 16.6999 74.6781 16.9445C74.8221 17.1331 74.9367 17.343 75.0179 17.5668L75.2079 18.4078L75.1165 18.7301L76.7569 19.9119L76.8226 20.2824L76.6838 20.764L76.6619 20.8455C76.6619 20.8455 75.7559 22.4867 75.723 22.2977Z" stroke="#12426B" stroke-width="1.81" stroke-miterlimit="10"/>
<path d="M68.6538 17.4445L70.2576 15.7145C70.3067 15.6665 70.3722 15.6396 70.4403 15.6396C70.5084 15.6396 70.5739 15.6665 70.623 15.7145L70.6449 15.7367C70.6922 15.7864 70.7187 15.8528 70.7187 15.9219C70.7187 15.991 70.6922 16.0574 70.6449 16.1072L69.0593 17.8521C69.0103 17.9 68.9448 17.9269 68.8767 17.9269C68.8085 17.9269 68.7431 17.9 68.694 17.8521L68.6721 17.8298C68.6452 17.8062 68.6234 17.7773 68.6079 17.7449C68.5923 17.7124 68.5834 17.6772 68.5817 17.6411C68.58 17.6051 68.5855 17.5691 68.5979 17.5354C68.6103 17.5016 68.6293 17.4707 68.6538 17.4445Z" fill="#12426B" stroke="#12426B" stroke-width="0.23" stroke-miterlimit="10"/>
<path d="M69.3334 18.0778L70.9372 16.3478C70.9862 16.2998 71.0517 16.2729 71.1198 16.2729C71.188 16.2729 71.2535 16.2998 71.3025 16.3478L71.3244 16.37C71.3718 16.4197 71.3982 16.4861 71.3982 16.5552C71.3982 16.6243 71.3718 16.6907 71.3244 16.7405L69.7206 18.4705C69.6716 18.5185 69.6061 18.5453 69.538 18.5453C69.4698 18.5453 69.4043 18.5185 69.3553 18.4705L69.3334 18.4483C69.2861 18.3986 69.2596 18.3322 69.2596 18.2631C69.2596 18.194 69.2861 18.1276 69.3334 18.0778Z" fill="#12426B" stroke="#12426B" stroke-width="0.23" stroke-miterlimit="10"/>
<path d="M70.1151 18.656L71.719 16.9259C71.768 16.8779 71.8335 16.8511 71.9016 16.8511C71.9698 16.8511 72.0352 16.8779 72.0843 16.9259L72.1062 16.9481C72.1535 16.9978 72.18 17.0642 72.18 17.1333C72.18 17.2024 72.1535 17.2689 72.1062 17.3186L70.5024 19.0487C70.4534 19.0967 70.3879 19.1235 70.3197 19.1235C70.2516 19.1235 70.1861 19.0967 70.1371 19.0487L70.1151 19.0264C70.0678 18.9767 70.0414 18.9103 70.0414 18.8412C70.0414 18.7721 70.0678 18.7057 70.1151 18.656Z" fill="#12426B" stroke="#12426B" stroke-width="0.23" stroke-miterlimit="10"/>
<path d="M65.3549 16.7296L68.8657 12.873L69.1032 12.3359L68.9717 11.5986L68.1935 12.347L68.1131 13.0916L66.0052 15.3515L65.249 15.5478L65.0846 15.8664L65.2344 16.6963L65.2965 16.7111L65.3549 16.7296Z" fill="#12426B" stroke="#12426B" stroke-width="0.23" stroke-miterlimit="10"/>
<path d="M75.8034 22.3271L77.0857 23.1347L78.748 24.0646L79.7344 24.5277L80.4102 23.068L79.0731 22.3271C78.645 22.1117 78.2335 21.864 77.8419 21.5862C77.4929 21.3153 77.1268 21.0678 76.746 20.8452L75.8034 22.3271Z" fill="#12426B" stroke="#12426B" stroke-width="2.26" stroke-miterlimit="10"/>
<path d="M12.4306 55.0761L12.421 55.0771L12.4115 55.0785C11.939 55.1481 11.4603 55.1631 10.9845 55.1231L10.9772 55.1225L10.9699 55.1221C10.8661 55.1164 10.7609 55.115 10.6695 55.1137C10.6454 55.1134 10.6223 55.1131 10.6005 55.1127C10.4883 55.1108 10.3977 55.1073 10.3157 55.0972C10.1629 55.0785 10.0621 55.0399 9.97027 54.9584L9.97031 54.9583L9.96489 54.9536C9.93382 54.9269 9.90832 54.8936 9.89014 54.856C9.93082 54.6372 10.0306 54.4342 10.1783 54.27L10.221 54.2225L10.2504 54.1658C10.4671 53.7478 10.5755 53.2814 10.5661 52.8102C10.5877 52.2653 10.5654 51.7031 10.544 51.1846C10.5446 51.072 10.5566 50.962 10.5714 50.8258C10.5819 50.7297 10.5937 50.6204 10.6041 50.488C10.6249 50.2212 10.6362 49.8642 10.514 49.5417C10.3405 49.0391 9.9951 48.614 9.53807 48.3444L9.50161 48.3229L9.46205 48.3078C8.85927 48.0782 8.20658 48.0174 7.57279 48.1318C7.17539 48.1465 6.79197 48.283 6.47329 48.5228C6.14245 48.7717 5.89845 49.1191 5.77462 49.5149L5.76422 49.5481L5.75853 49.5825C5.65855 50.1863 5.63287 50.8002 5.68203 51.4103C5.67169 52.0147 5.69577 52.6192 5.75415 53.2208L5.75496 53.2292L5.75605 53.2375C5.7909 53.5035 5.88089 53.7859 5.95443 54.0167C5.96931 54.0634 5.98352 54.108 5.99646 54.1499C6.07701 54.4107 6.12182 54.6022 6.11994 54.7573C6.10154 54.8172 6.07258 54.8731 6.03464 54.922C5.99967 54.9672 5.95778 55.0056 5.91095 55.0359C5.69711 55.0824 5.47765 55.0968 5.25955 55.0786L5.23878 55.0769H5.21793H4.34113H4.32216L4.30323 55.0783C3.9372 55.1061 3.56952 55.0555 3.22395 54.9298C3.22073 54.927 3.21951 54.9244 3.21788 54.9209L3.21744 54.9199C3.20992 54.904 3.19746 54.8637 3.1976 54.7864C3.19789 54.6265 3.25004 54.4253 3.31569 54.2359C3.57604 53.5762 3.71057 52.8726 3.71226 52.1623V52.1611V43.2805C3.74204 42.5698 3.7268 41.858 3.66663 41.1493L3.66454 41.1247L3.66004 41.1004C3.58588 40.7004 3.46432 40.3109 3.29796 39.9402C3.24203 39.7914 3.21592 39.6599 3.22034 39.566C3.22242 39.5219 3.23072 39.4988 3.23553 39.489C3.23875 39.4825 3.24331 39.4748 3.25947 39.4638C3.32257 39.4209 3.47615 39.3734 3.74313 39.3507C3.94978 39.3332 4.16216 39.3341 4.3649 39.335C4.40862 39.3352 4.4519 39.3354 4.49457 39.3354C4.64969 39.3354 4.81129 39.3405 4.98589 39.3461L4.99153 39.3463C5.16545 39.3518 5.35126 39.3576 5.53942 39.3576C5.72755 39.3576 5.86953 39.3921 5.95738 39.442C6.02545 39.4806 6.07227 39.5317 6.09211 39.6423C6.11501 39.7701 6.09029 39.899 6.01176 40.0983C5.9967 40.1365 5.97679 40.1829 5.9543 40.2353C5.88082 40.4066 5.77979 40.642 5.73061 40.8656L5.72484 40.8918L5.72191 40.9185C5.64916 41.5819 5.62479 42.2498 5.64899 42.9167C5.61755 43.4813 5.63458 44.0476 5.69989 44.6092C5.7432 45.0377 5.94478 45.4354 6.26642 45.7217L6.27697 45.7311L6.28804 45.7399C6.82959 46.1697 7.51491 46.3717 8.20103 46.3026C8.48926 46.2873 8.84344 46.2393 9.18006 46.1209C9.51794 46.0021 9.8883 45.7942 10.1249 45.4257L10.1402 45.402L10.1526 45.3767C10.211 45.2583 10.2656 45.1207 10.3127 44.9995L10.3242 44.9699L10.3319 44.939C10.5148 44.2031 10.5863 43.4434 10.5442 42.6858C10.5599 41.7034 10.368 40.7288 9.98096 39.8273L9.96843 39.7982L9.95232 39.7708C9.92286 39.7208 9.90984 39.6617 9.91597 39.6026C9.92179 39.5466 9.94438 39.4947 9.97947 39.4537C10.0465 39.3893 10.1378 39.3509 10.3019 39.3374C10.3895 39.3302 10.4861 39.3311 10.6009 39.3352C10.6276 39.3361 10.6565 39.3374 10.6868 39.3386C10.7753 39.3423 10.8757 39.3465 10.9682 39.3465C11.0933 39.3465 11.2013 39.3435 11.3008 39.3408C11.472 39.3361 11.6184 39.3321 11.7842 39.345L11.8036 39.3465H11.8231C11.9022 39.3465 11.9737 39.3453 12.0398 39.3442C12.2126 39.3413 12.348 39.3391 12.4848 39.3604C12.6329 39.3836 12.7051 39.4258 12.7539 39.4884C12.7896 39.5545 12.8113 39.628 12.817 39.7041C12.8233 39.7869 12.8105 39.8699 12.7799 39.9465L12.7682 39.9759L12.7602 40.0066C12.6491 40.4353 12.5736 40.8726 12.5343 41.314L12.5342 41.3147C12.4968 41.7421 12.5033 42.1698 12.5147 42.5746C12.5168 42.6478 12.519 42.72 12.5212 42.7914C12.5314 43.122 12.5411 43.435 12.5326 43.7451C12.4628 45.3679 12.4629 47.0099 12.4848 48.6229V51.0642C12.4507 52.1796 12.5408 53.2954 12.7534 54.3904L12.7587 54.4178L12.7671 54.4444C12.7966 54.5389 12.8069 54.6387 12.7972 54.7375C12.7898 54.8121 12.7712 54.8848 12.7422 54.953C12.7392 54.9562 12.7362 54.9595 12.7332 54.963C12.6428 55.0256 12.5388 55.0643 12.4306 55.0761ZM12.8255 54.8798C12.8275 54.8781 12.8287 54.8772 12.8287 54.8772C12.8287 54.8772 12.8277 54.878 12.8255 54.8798Z" fill="#BE4C40" stroke="#BE4C40"/>
<path d="M19.0819 40.9659L19.0719 40.9296L19.0566 40.8953C18.9158 40.5795 18.7283 40.2871 18.5006 40.028L18.5006 40.028L18.4996 40.0268C18.4624 39.9847 18.4188 39.9386 18.3846 39.9023C18.3709 39.8878 18.3588 39.8749 18.3491 39.8645C18.307 39.8192 18.2833 39.7909 18.2679 39.7687C18.261 39.7587 18.2573 39.7523 18.2556 39.7489C18.2557 39.7476 18.2559 39.7458 18.2561 39.7435L18.2597 39.7137V39.6838C18.2597 39.6656 18.2613 39.6541 18.2626 39.6477C18.2765 39.6383 18.3193 39.6153 18.4157 39.5975C18.5907 39.5651 18.7699 39.5712 18.9631 39.5778C19.0462 39.5807 19.1319 39.5836 19.221 39.5836V39.5837L19.2296 39.5835C19.6491 39.5764 20.0774 39.5772 20.5113 39.5781C21.5996 39.5803 22.7229 39.5825 23.8289 39.4582L23.8494 39.4559L23.8697 39.4519C24.3061 39.366 24.7571 39.3992 25.1768 39.5483C25.4341 39.6639 25.5582 39.8411 25.6303 40.0879C25.7134 40.3724 25.7171 40.7155 25.7171 41.1286C25.7171 41.3021 25.6786 41.515 25.6036 41.665C25.5458 41.7806 25.5016 41.8019 25.474 41.8058C25.3764 41.7941 25.2814 41.765 25.1932 41.7197C24.6494 41.4286 24.046 41.2693 23.4304 41.2548L23.4304 41.2548L23.4232 41.2547C22.8631 41.2497 22.3236 41.4619 21.9147 41.8459L21.887 41.8719L21.8636 41.9017C21.6161 42.2172 21.4411 42.5839 21.3507 42.9754C21.2604 43.3669 21.2569 43.7737 21.3404 44.1667L21.3441 44.1838L21.3489 44.2006C21.3546 44.2206 21.3604 44.2412 21.3664 44.2624C21.4716 44.6349 21.625 45.1785 22.2128 45.49L22.2307 45.4994L22.2493 45.5074C22.6285 45.6707 23.038 45.7503 23.4504 45.7408C23.7673 45.7406 24.0559 45.7217 24.3418 45.7031C24.4005 45.6993 24.459 45.6955 24.5176 45.6918C24.5975 45.6876 24.6699 45.6832 24.7359 45.6791C25.1489 45.6538 25.3145 45.6436 25.5067 45.8083C25.5912 45.9085 25.6553 46.0255 25.6946 46.1524C25.7366 46.2878 25.7494 46.4311 25.7319 46.5722L25.7265 46.6153L25.7287 46.6586C25.7465 47.0157 25.6672 47.3703 25.5003 47.6838C25.4759 47.7102 25.4249 47.7411 25.2845 47.7518C25.1541 47.7618 25.0323 47.7513 24.8824 47.7383C24.8128 47.7323 24.7371 47.7258 24.6517 47.7205C24.5845 47.7153 24.5099 47.7087 24.4299 47.7017C24.1435 47.6765 23.7882 47.6453 23.4552 47.6453C22.8412 47.6453 22.3018 47.7798 21.9029 48.1589C21.511 48.5313 21.3409 49.0592 21.2746 49.6488C21.2156 50.1069 21.2078 50.5703 21.2513 51.0302L21.2537 51.0552L21.2586 51.0798C21.3533 51.56 21.4624 51.9622 21.7338 52.2695C22.0029 52.574 22.3793 52.7231 22.7872 52.8717L22.8134 52.8813L22.8405 52.8879C23.0712 52.9438 23.3074 52.9734 23.5446 52.976L23.5538 52.9761L23.563 52.9759C23.8647 52.9681 24.1639 52.92 24.453 52.8329C24.5547 52.8029 24.6405 52.7742 24.7203 52.7475C24.847 52.7052 24.9586 52.6679 25.0951 52.6381C25.2723 52.5995 25.378 52.6055 25.443 52.6278C25.5146 52.6801 25.574 52.7491 25.6158 52.83C25.6629 52.9215 25.6856 53.0245 25.6811 53.1284L25.6789 53.1782L25.6866 53.2276C25.7508 53.6381 25.7196 54.0581 25.5957 54.4539C25.4916 54.6809 25.3239 54.8703 25.115 54.9989C24.8057 55.1128 24.4737 55.1477 24.1479 55.1005L24.1071 55.0946L24.0659 55.0955C23.0073 55.1175 21.948 55.1176 20.8571 55.1176C20.4491 55.1067 20.0677 55.1014 19.6873 55.0961C19.2829 55.0904 18.8797 55.0847 18.4468 55.0725C18.3665 55.0327 18.2932 54.9791 18.2301 54.9136C18.2324 54.9083 18.2353 54.9019 18.2392 54.8944C18.2588 54.8561 18.2922 54.8074 18.3439 54.7447C18.3846 54.6955 18.4256 54.6504 18.4726 54.5987C18.4872 54.5827 18.5023 54.5661 18.5181 54.5486L18.5182 54.5487L18.526 54.5396C18.9544 54.0416 19.198 53.4092 19.2165 52.7509C19.228 52.5182 19.2223 52.2884 19.217 52.0771L19.2167 52.0662C19.2112 51.8442 19.2064 51.6399 19.2163 51.4331L19.2169 51.4211V51.4091V46.8213C19.2388 45.9023 19.2388 44.988 19.2388 44.0769V44.0738V42.7161C19.2557 42.2603 19.2479 41.8038 19.2156 41.3488L19.209 41.2552L19.1688 41.1703C19.1199 41.0671 19.0937 41.0085 19.0819 40.9659Z" fill="#BE4C40" stroke="#BE4C40"/>
<path d="M37.8086 53.2134L37.8041 53.2563L37.8071 53.2993C37.8274 53.5973 37.8274 53.8963 37.8071 54.1943L37.8048 54.2268L37.8069 54.2593C37.8175 54.4318 37.7851 54.6037 37.7131 54.7591C37.6302 54.8646 37.5265 54.9506 37.4093 55.0119C37.0057 55.1363 36.5811 55.1748 36.1621 55.1249L36.1326 55.1214H36.103C35.7116 55.1214 35.3144 55.1269 34.9182 55.1324L34.9073 55.1325C34.5063 55.1381 34.1061 55.1436 33.7064 55.1436C33.1485 55.1436 32.5881 55.1218 32.0232 55.096L31.9922 55.0946L31.9613 55.097C31.6903 55.1182 31.4181 55.119 31.147 55.0994C31.0127 55.0675 30.9173 54.9947 30.8819 54.9415C30.8677 54.9202 30.8679 54.9105 30.868 54.9084L30.868 54.9082L30.868 54.9081C30.868 54.9062 30.8684 54.8775 30.9089 54.8197C31.2011 54.4173 31.4195 53.9653 31.5539 53.4852L31.5598 53.4641L31.5638 53.4426C31.7131 52.6469 31.7638 51.8354 31.7148 51.0271V48.7084C31.7148 48.4875 31.7202 48.2591 31.7257 48.0237L31.7257 48.0207C31.7312 47.7884 31.7368 47.5492 31.7368 47.3155C31.7368 47.0438 31.6946 46.7608 31.6571 46.5144C31.655 46.501 31.653 46.4877 31.651 46.4745C31.6141 46.2331 31.5816 46.0204 31.5722 45.8178C31.5578 45.0239 31.5626 44.2464 31.5674 43.4593C31.5699 43.0633 31.5723 42.6648 31.5724 42.2606C31.5872 41.8594 31.5794 41.4577 31.549 41.0574L31.5463 41.022L31.5386 40.9873C31.4376 40.5307 31.2209 40.1084 30.9095 39.762C30.8711 39.6837 30.8589 39.5937 30.8761 39.5063L30.8768 39.5025C30.8801 39.4851 30.8881 39.4701 30.8986 39.4588C30.9594 39.4296 31.0261 39.4163 31.0929 39.4199L31.1063 39.4207H31.1199C31.3399 39.4207 31.5644 39.415 31.7814 39.4095L31.7846 39.4094C32.005 39.4038 32.2178 39.3984 32.4241 39.3984C32.8503 39.3984 33.188 39.3986 33.5476 39.4193C33.6834 39.4329 33.8146 39.4791 33.9303 39.5544L33.9438 39.5632L33.9459 39.5782C33.9766 39.7884 33.9483 40.003 33.8646 40.1973L33.8511 40.2287L33.8419 40.2618C33.7183 40.7085 33.6725 41.1734 33.7065 41.6358C33.685 42.7883 33.685 43.9364 33.685 45.0828V45.0853V46.719H33.6849L33.685 46.7255C33.6939 47.4098 33.6561 48.0939 33.5719 48.7729L33.5719 48.7729L33.5715 48.7758C33.5376 49.0633 33.5291 49.3533 33.5461 49.6423V50.709C33.5461 51.0865 33.6141 51.5388 33.7718 51.9513C33.9264 52.3554 34.1946 52.7905 34.6427 53.0261L34.6529 53.0314L34.6633 53.0363C35.1707 53.274 35.7412 53.3373 36.2879 53.2162L36.2993 53.2136L36.3106 53.2106C36.4497 53.1728 36.5936 53.1287 36.7294 53.0868L36.7597 53.0774C36.8873 53.038 37.0075 53.0009 37.1226 52.9685L37.1501 52.9608L37.1765 52.9499C37.3258 52.8888 37.4858 52.8597 37.6463 52.8643C37.6773 52.8672 37.7078 52.8759 37.7361 52.8902C37.7521 52.8982 37.7672 52.908 37.7814 52.9193C37.8096 53.0143 37.8189 53.1143 37.8086 53.2134Z" fill="#BE4C40" stroke="#BE4C40"/>
<path d="M49.5705 53.1972L49.5635 53.2481L49.567 53.2992C49.5874 53.5972 49.5874 53.8963 49.567 54.1943L49.5648 54.2267L49.5668 54.2592C49.5775 54.4317 49.545 54.6036 49.473 54.759C49.3901 54.8645 49.2865 54.9506 49.1692 55.0118C48.7656 55.1363 48.3411 55.1748 47.9221 55.1248L47.8926 55.1213H47.8629C47.4717 55.1213 47.0749 55.1268 46.6789 55.1323L46.6673 55.1325C46.2662 55.138 45.866 55.1435 45.4663 55.1435C44.9084 55.1435 44.348 55.1218 43.7831 55.0959L43.7521 55.0945L43.7212 55.0969C43.4502 55.1181 43.1781 55.1189 42.907 55.0993C42.7756 55.068 42.6813 54.9963 42.6439 54.9407C42.6276 54.9165 42.6265 54.9029 42.6264 54.8973C42.6264 54.893 42.6264 54.8675 42.6573 54.8178C42.9461 54.4177 43.1622 53.9689 43.2955 53.4925L43.3014 53.4715L43.3054 53.4499C43.4547 52.6542 43.5055 51.8428 43.4565 51.0344V48.7158C43.4565 48.4948 43.4618 48.2664 43.4673 48.031L43.4674 48.028C43.4728 47.7957 43.4784 47.5565 43.4784 47.3228C43.4784 47.0512 43.4363 46.7682 43.3987 46.5218C43.3967 46.5084 43.3946 46.4951 43.3926 46.4819C43.3557 46.2404 43.3232 46.0277 43.3138 45.8251C43.2995 45.0313 43.3043 44.2538 43.3091 43.4666C43.3115 43.0706 43.314 42.6721 43.314 42.2679C43.3289 41.8667 43.3211 41.465 43.2907 41.0648L43.2885 41.0368L43.2833 41.0092C43.1947 40.5437 42.9863 40.1099 42.679 39.7516C42.6388 39.6723 42.6258 39.5805 42.6433 39.4914L42.6441 39.4876C42.6474 39.4702 42.6553 39.4552 42.6659 39.4439C42.7267 39.4147 42.7934 39.4014 42.8601 39.405L42.8736 39.4058H42.8871C43.1072 39.4058 43.3316 39.4001 43.5487 39.3946L43.5519 39.3945C43.7723 39.3889 43.985 39.3835 44.1913 39.3835C44.6176 39.3835 44.9553 39.3837 45.3148 39.4044C45.4506 39.418 45.5818 39.4642 45.6975 39.5396L45.711 39.5484L45.7132 39.5633C45.7438 39.7735 45.7155 39.9881 45.6318 40.1824L45.6183 40.2138L45.6091 40.2469C45.4855 40.6936 45.4397 41.1585 45.4738 41.6209C45.4522 42.7737 45.4522 43.9221 45.4522 45.0688V45.0704V46.7041H45.4522L45.4522 46.7106C45.4611 47.3949 45.4233 48.079 45.3391 48.758L45.3391 48.758L45.3387 48.761C45.3048 49.0485 45.2964 49.3384 45.3134 49.6274V50.6941C45.3134 51.0716 45.3813 51.5239 45.5391 51.9364C45.6936 52.3405 45.9618 52.7756 46.41 53.0112L46.4201 53.0165L46.4305 53.0214C46.9379 53.2591 47.5085 53.3225 48.0551 53.2013L48.0665 53.1988L48.0779 53.1957C48.217 53.1579 48.3608 53.1138 48.4967 53.0719L48.5269 53.0626C48.6544 53.0232 48.7747 52.986 48.8899 52.9536L48.9173 52.9459L48.9437 52.9351C49.0931 52.8739 49.253 52.8448 49.4136 52.8494C49.4446 52.8523 49.475 52.8611 49.5033 52.8753C49.5193 52.8834 49.5344 52.8931 49.5486 52.9044C49.5764 52.999 49.5839 53.0989 49.5705 53.1972Z" fill="#BE4C40" stroke="#BE4C40"/>
<path d="M59.5248 40.81C59.2726 40.8095 59.0212 40.8373 58.7751 40.8926L58.766 40.8947L58.7648 40.8949C58.7578 40.8961 58.7472 40.8981 58.7349 40.9007C58.7122 40.9056 58.6709 40.9153 58.6237 40.9347C58.6187 40.9368 58.6134 40.939 58.6079 40.9415C57.1066 41.3448 56.2145 42.8637 55.8252 44.0974L55.8206 44.112L55.8169 44.1269C55.6687 44.7213 55.5545 45.3238 55.4748 45.9314C55.3219 46.8774 55.3289 47.8428 55.4955 48.7863C55.54 49.2611 55.6236 49.7314 55.7456 50.1921L55.7491 50.2054L55.7533 50.2184C56.0293 51.0699 56.4384 51.8602 57.0625 52.4406C57.6988 53.0323 58.5272 53.3761 59.5717 53.3761C60.7979 53.3761 61.7092 52.9031 62.3559 52.1342C62.9845 51.387 63.3386 50.391 63.5469 49.3674L63.5475 49.3645C63.5761 49.2195 63.59 49.0726 63.6012 48.9538L63.6022 48.9429C63.6146 48.8125 63.6244 48.7138 63.6422 48.625C63.644 48.6161 63.6458 48.6069 63.6477 48.5975C63.6933 48.3707 63.7682 47.9975 63.7689 47.6641C63.7773 47.1186 63.7371 46.5735 63.6486 46.0354C63.5597 44.9522 63.2417 43.682 62.6078 42.6638C61.9629 41.6278 60.9569 40.8103 59.5248 40.81ZM59.5248 40.81C59.525 40.81 59.5251 40.81 59.5253 40.81L59.5242 41.31V40.81C59.5244 40.81 59.5246 40.81 59.5248 40.81ZM62.3613 40.2687L62.3615 40.2688C64.3453 41.5282 65.1497 43.4008 65.379 45.8153C65.4122 46.2918 65.4076 46.7731 65.4027 47.2713C65.401 47.4481 65.3993 47.627 65.3992 47.8086C65.3232 49.5984 64.802 51.3392 63.8846 52.869C63.5392 53.4114 62.904 53.9545 62.1571 54.3776C61.4091 54.8013 60.6109 55.0695 59.9842 55.1112L59.9754 55.1118L59.9667 55.1127C59.4395 55.1665 58.9072 55.1227 58.3954 54.9833C55.0429 54.0601 53.7588 50.9706 53.7588 47.4561V47.4208L53.7539 47.3859C53.7403 47.2903 53.7346 47.1936 53.7368 47.097L53.7371 47.0837L53.7367 47.0704C53.6954 45.717 53.905 44.3679 54.3545 43.0931C54.6484 42.2775 55.1358 41.5487 55.7729 40.9709C56.9307 40.0294 58.101 39.432 59.5228 39.4316C60.5267 39.4378 61.5096 39.7274 62.3613 40.2687ZM58.7776 40.8927L58.7755 40.893C58.7805 40.892 58.7818 40.8919 58.7776 40.8927Z" fill="#BE4C40" stroke="#BE4C40"/>
<path d="M71.0553 58.2322L71.0553 58.2322L71.0574 58.2286C71.0926 58.1667 71.1344 58.1047 71.1848 58.0333C71.1959 58.0176 71.2081 58.0006 71.2208 57.9827C71.2511 57.9403 71.2849 57.8928 71.3172 57.8454C71.5526 57.6058 71.7233 57.3096 71.8134 56.985L71.8192 56.9642L71.8232 56.9429C71.8977 56.5436 71.8421 56.1303 71.6643 55.7652L71.6458 55.7274L71.6213 55.6931C71.4344 55.4322 71.2271 55.1867 71.0014 54.9592C70.834 54.729 70.7187 54.352 70.716 53.944C70.7133 53.5187 70.8327 53.1718 71.0082 52.9861L71.0082 52.9861L71.0096 52.9847C71.1547 52.83 71.364 52.7374 71.6422 52.6995C71.9234 52.6612 72.2374 52.6843 72.5399 52.7296L72.558 52.7323L72.5762 52.7337C72.6934 52.7426 72.8079 52.775 72.913 52.8294C73.0182 52.8838 73.1121 52.9592 73.1891 53.0514C73.266 53.1437 73.3244 53.251 73.3605 53.3671C73.3965 53.4833 73.4094 53.6057 73.3984 53.7272L73.3945 53.7698L73.3979 53.8124C73.4603 54.5932 73.4227 55.3788 73.2859 56.1496C73.1745 56.617 72.967 57.055 72.6774 57.4348C72.3852 57.818 72.0162 58.1331 71.5953 58.3595L71.5861 58.3645L71.577 58.3698C71.4934 58.4194 71.4011 58.4512 71.3057 58.4635C71.2161 58.475 71.1251 58.4692 71.0375 58.4462C71.0288 58.4422 71.0205 58.4364 71.0131 58.4289C71.0107 58.4265 71.0084 58.4239 71.0063 58.4211C71.0052 58.3548 71.0222 58.2893 71.0553 58.2322Z" fill="#BE4C40" stroke="#BE4C40"/>
<path d="M107.361 55.1929L107.351 55.1935L107.342 55.1945C106.869 55.2437 106.391 55.2048 105.932 55.0797L105.932 55.0796C102.93 54.2643 101.782 51.4756 101.782 48.3047V48.2656L101.775 48.227C101.762 48.1426 101.757 48.057 101.759 47.9715L101.76 47.9553L101.759 47.939C101.717 46.7165 101.904 45.497 102.311 44.3459C102.576 43.6125 103.015 42.9573 103.588 42.4378C104.631 41.5862 105.684 41.0514 106.964 41.0508C107.865 41.0588 108.746 41.3189 109.511 41.803C111.298 42.9365 112.025 44.62 112.233 46.8159C112.264 47.2516 112.26 47.6929 112.256 48.1495C112.254 48.3029 112.253 48.4579 112.253 48.6151C112.175 50.2309 111.698 51.8007 110.866 53.1801C110.56 53.6629 109.989 54.1516 109.314 54.5338C108.638 54.9164 107.92 55.1566 107.361 55.1929ZM103.558 45.2489L103.554 45.2622L103.551 45.2758C103.416 45.8164 103.312 46.3643 103.238 46.9168C103.1 47.7812 103.107 48.6631 103.259 49.525C103.302 49.9569 103.378 50.3847 103.486 50.8046L103.49 50.8184L103.494 50.832C103.746 51.6188 104.121 52.3464 104.696 52.8799C105.284 53.4247 106.048 53.7356 107.006 53.7356C108.133 53.7356 108.974 53.3009 109.571 52.5927C110.149 51.9061 110.474 50.9934 110.664 50.0605L110.664 50.059C110.691 49.9242 110.704 49.7874 110.714 49.6791L110.715 49.6692C110.727 49.5494 110.736 49.4607 110.752 49.381C110.753 49.3742 110.754 49.3671 110.756 49.3599C110.798 49.1517 110.867 48.808 110.867 48.5011C110.874 48.0044 110.837 47.508 110.758 47.0178C110.676 46.0293 110.387 44.8691 109.808 43.9374C109.218 42.9878 108.293 42.2328 106.973 42.2328L106.973 42.2328C106.774 42.2331 106.575 42.2526 106.379 42.2911C106.361 42.2902 106.343 42.2901 106.325 42.2908C106.261 42.2933 106.199 42.3057 106.139 42.3275C104.738 42.6934 103.914 44.0973 103.558 45.2489Z" fill="#BE4C40" stroke="#BE4C40"/>
<path d="M124.199 47.056C124.236 46.82 124.286 46.5862 124.348 46.3558C124.396 46.1407 124.41 45.9196 124.392 45.7001L124.199 47.056ZM124.199 47.056C124.165 47.2827 124.099 47.5034 124.005 47.7117L124.199 47.056ZM119.772 48.5007L119.665 48.4465C119.412 48.3182 119.199 48.1247 119.045 47.8867C118.663 47.3395 118.671 46.7667 118.677 46.3096C118.678 46.2527 118.679 46.1976 118.679 46.1446V45.2259C118.679 45.1489 118.677 45.0596 118.675 44.963C118.67 44.7421 118.664 44.4827 118.679 44.2443C118.682 44.165 118.698 44.1004 118.709 44.063C118.714 44.0429 118.72 44.0235 118.724 44.0109L118.725 44.0096L119.772 48.5007ZM119.772 48.5007H119.891H119.957C120.059 48.5199 120.164 48.5272 120.269 48.5224L120.294 48.5212L120.319 48.5175C120.622 48.4725 120.909 48.3552 121.157 48.1758C121.398 48.0018 121.595 47.7745 121.734 47.5119C122.02 47.068 122.191 46.5588 122.231 46.0311L122.232 46.0238L122.232 46.0165C122.252 45.5959 122.236 45.1743 122.185 44.7564C122.142 44.3707 121.969 43.9297 121.734 43.56C121.507 43.202 121.164 42.8198 120.722 42.6634C120.482 42.5714 120.222 42.5438 119.967 42.5837C119.71 42.6241 119.468 42.7322 119.266 42.8965L119.232 42.9235L119.204 42.9559C118.945 43.2527 118.779 43.6193 118.725 44.0094L119.772 48.5007ZM123.894 45.7413C123.908 45.9074 123.897 46.0747 123.862 46.2375C123.797 46.4814 123.744 46.7286 123.705 46.9783L123.705 46.9783L123.704 46.9817C123.677 47.1629 123.625 47.3391 123.55 47.5054L123.545 47.515L123.541 47.5248C123.279 48.1755 122.929 48.6424 122.501 48.9838C122.079 49.3209 121.556 49.5543 120.916 49.7055C120.405 49.7463 119.909 49.9026 119.466 50.1628L119.451 50.1718L119.437 50.1817C119.069 50.4342 118.874 50.8181 118.775 51.1714C118.676 51.5243 118.659 51.8945 118.684 52.2018C118.692 52.359 118.689 52.5159 118.687 52.6919C118.686 52.7221 118.686 52.7528 118.685 52.7842C118.683 52.9932 118.682 53.2264 118.707 53.4658L118.707 53.4659C118.747 53.836 118.836 54.1989 118.972 54.5445L119.034 54.7279L119.07 54.8377L119.089 54.8563C119.095 54.8693 119.103 54.8846 119.113 54.9012C119.133 54.9506 119.148 55.0025 119.157 55.0556C119.152 55.0662 119.137 55.0875 119.098 55.1185C119.024 55.178 118.921 55.2192 118.847 55.2318C118.522 55.2585 118.196 55.265 117.87 55.2513L117.86 55.2509H117.849C117.63 55.2509 117.416 55.2505 117.205 55.2308L117.154 55.226L117.103 55.2318C116.986 55.2448 116.869 55.2323 116.757 55.1949C116.723 55.1795 116.693 55.1557 116.669 55.1248L116.617 55.1647L116.669 55.1248C116.66 55.1127 116.652 55.0997 116.645 55.0861C116.658 55.057 116.673 55.0292 116.69 55.0028C117.054 54.4628 117.268 53.8341 117.311 53.1825L117.312 53.1664V53.1502C117.312 52.4542 117.317 51.7624 117.323 51.0712L117.323 51.062C117.328 50.3745 117.334 49.6874 117.334 49.001V44.2886C117.334 43.8597 117.311 43.4553 117.289 43.0661L117.289 43.0604L117.285 42.9965L117.267 42.9397L117.271 42.8822L117.259 42.8213C117.166 42.3279 116.996 41.8526 116.755 41.4131C116.732 41.3669 116.707 41.3193 116.687 41.282C116.68 41.2699 116.675 41.2588 116.67 41.2493C116.644 41.2001 116.629 41.1696 116.62 41.146C116.634 41.1243 116.651 41.1049 116.67 41.0881C116.7 41.0613 116.736 41.0422 116.773 41.0314L116.773 41.0316L116.786 41.0278C116.901 40.9916 117.023 40.9823 117.142 41.0005L117.166 41.004L117.19 41.0054C117.4 41.017 117.61 41.0175 117.821 41.0068C118.256 41.0283 118.688 41.0283 119.107 41.0283H119.113H119.124L119.134 41.0279C119.544 41.0109 119.956 41.0246 120.364 41.0688C121.706 41.2714 122.714 41.8329 123.289 42.9999C123.64 43.8676 123.844 44.7892 123.893 45.7261L123.893 45.7337L123.894 45.7413ZM119.159 55.0479C119.159 55.048 119.159 55.0493 119.158 55.0518C119.159 55.0492 119.159 55.0479 119.159 55.0479Z" fill="#BE4C40" stroke="#BE4C40"/>
<path d="M129.102 42.4172L129.09 42.3613L129.066 42.3094C128.936 42.0251 128.763 41.7623 128.555 41.5301C128.522 41.493 128.484 41.452 128.454 41.4195C128.441 41.4057 128.43 41.3935 128.421 41.3837C128.383 41.3417 128.36 41.3149 128.345 41.2938C128.341 41.2882 128.339 41.2839 128.337 41.2805L128.337 41.2717V41.2547C128.356 41.2464 128.389 41.2343 128.445 41.2236C128.538 41.2055 128.653 41.199 128.783 41.1992C128.846 41.1992 128.909 41.2008 128.971 41.2026C128.976 41.2027 128.982 41.2029 128.987 41.2031C129.042 41.2046 129.101 41.2063 129.153 41.2063V41.2063L129.161 41.2062C129.539 41.2001 129.925 41.2011 130.318 41.2021C131.309 41.2045 132.334 41.2071 133.343 41.0958L133.365 41.0934L133.386 41.0891C133.772 41.0118 134.171 41.0397 134.543 41.1699C134.763 41.2739 134.867 41.4255 134.929 41.6356C135.002 41.8842 135.006 42.1846 135.006 42.5586C135.006 42.7122 134.972 42.8981 134.908 43.0262C134.877 43.0869 134.851 43.1136 134.839 43.1229L134.838 43.1234C134.835 43.1255 134.833 43.1271 134.829 43.1281C134.747 43.1177 134.668 43.0934 134.593 43.0561C134.094 42.7891 133.54 42.6429 132.975 42.6293L132.975 42.6292L132.967 42.6292C132.446 42.6253 131.945 42.8228 131.565 43.1795L131.536 43.2064L131.512 43.2374C131.285 43.5295 131.125 43.8681 131.042 44.2292C130.96 44.5838 130.955 44.9518 131.026 45.3085C131.06 45.5546 131.145 45.7911 131.277 46.002C131.412 46.2188 131.593 46.4034 131.807 46.5422L131.843 46.5654L131.882 46.5822C132.233 46.7321 132.61 46.8052 132.991 46.7966C133.312 46.7964 133.614 46.7754 133.912 46.7547C133.928 46.7536 133.945 46.7525 133.961 46.7513C134.032 46.7478 134.097 46.7441 134.156 46.7407C134.531 46.7193 134.665 46.7116 134.827 46.8478C134.9 46.9338 134.956 47.0342 134.991 47.1433C135.028 47.2608 135.041 47.3853 135.027 47.5083L135.023 47.5477L135.024 47.5873C135.039 47.9014 134.969 48.2131 134.823 48.4889C134.807 48.5034 134.768 48.5248 134.66 48.5331C134.588 48.5387 134.505 48.5366 134.405 48.5298C134.376 48.5278 134.333 48.5243 134.286 48.5205C134.218 48.515 134.143 48.5089 134.092 48.5058C134.026 48.5009 133.95 48.4944 133.869 48.4874C133.613 48.4654 133.297 48.4381 133.003 48.4381C132.441 48.4381 131.939 48.5618 131.564 48.9162C131.196 49.2642 131.037 49.7552 130.976 50.2962C130.921 50.7152 130.913 51.1393 130.953 51.5601L130.955 51.5848L130.96 51.6092C131.045 52.0406 131.142 52.4219 131.394 52.7137C131.649 53.0087 132.006 53.1466 132.386 53.2755L132.407 53.2827L132.428 53.2879C132.642 53.3397 132.86 53.3668 133.079 53.3687L133.088 53.3688L133.098 53.3686C133.373 53.3608 133.647 53.3182 133.912 53.2418L133.915 53.241C134.002 53.2154 134.077 53.1909 134.147 53.1681C134.266 53.1292 134.37 53.0952 134.494 53.0689C134.643 53.0373 134.733 53.0404 134.788 53.0549C134.843 53.0974 134.889 53.1519 134.921 53.2152C134.961 53.2915 134.98 53.3776 134.977 53.4645L134.975 53.5142L134.983 53.5633C135.042 53.9306 135.014 54.3067 134.903 54.6607C134.813 54.8564 134.667 55.0187 134.486 55.1276C134.214 55.2279 133.922 55.2581 133.635 55.2157L133.593 55.2094L133.551 55.2104C132.592 55.2324 131.628 55.2325 130.647 55.2325C130.269 55.2214 129.89 55.2158 129.513 55.2103L129.507 55.2102C129.16 55.2051 128.814 55.2001 128.465 55.1908C128.412 55.1644 128.363 55.1311 128.318 55.0919C128.335 55.0621 128.362 55.0246 128.4 54.9777C128.437 54.932 128.475 54.8901 128.519 54.8415C128.531 54.8279 128.544 54.8138 128.557 54.799L128.557 54.799L128.562 54.7928C128.957 54.3368 129.182 53.7565 129.199 53.1523C129.211 52.9384 129.205 52.7279 129.2 52.5376L129.199 52.5262C129.194 52.3244 129.189 52.1421 129.199 51.9579L129.2 51.9447V51.9315V47.7703C129.221 46.9361 129.221 46.103 129.221 45.2775V45.2742V43.9941C129.237 43.5786 129.229 43.1625 129.198 42.7479L129.195 42.6989L129.182 42.6515C129.164 42.5871 129.14 42.525 129.126 42.4882C129.125 42.4832 129.123 42.4788 129.121 42.4748C129.114 42.4542 129.109 42.4411 129.106 42.4305C129.102 42.421 129.102 42.4172 129.102 42.4172Z" fill="#BE4C40" stroke="#BE4C40"/>
<path d="M145.373 50.1843L145.375 50.1912L145.378 50.1981C145.55 50.6181 145.769 51.0429 145.978 51.4472C146.088 51.6599 146.194 51.8668 146.29 52.0644C146.655 52.9557 147.14 53.7921 147.73 54.5502L147.731 54.552C147.791 54.6277 147.855 54.6963 147.908 54.751C147.921 54.7642 147.932 54.7766 147.944 54.7884C147.984 54.8301 148.017 54.864 148.049 54.9002C148.13 54.9915 148.147 55.033 148.15 55.0484C148.155 55.0691 148.155 55.082 148.154 55.0884C148.154 55.0949 148.153 55.0978 148.152 55.099C148.152 55.1001 148.148 55.1116 148.124 55.1307C148.069 55.1761 147.956 55.2222 147.817 55.2293L147.817 55.2292L147.804 55.2302C147.545 55.2506 147.287 55.2509 146.981 55.2509H146.97L146.959 55.2514C146.646 55.2649 146.332 55.2582 146.019 55.2312C145.887 55.2155 145.76 55.172 145.644 55.1032L145.628 55.0936L145.612 55.0853C145.592 55.0754 145.561 55.0531 145.52 54.9684C145.478 54.8817 145.45 54.783 145.409 54.6403C145.404 54.6229 145.399 54.6048 145.393 54.5861C145.366 54.4901 145.347 54.379 145.321 54.2279C145.316 54.1945 145.31 54.1591 145.303 54.1214C145.272 53.938 145.229 53.7114 145.149 53.4935C145.049 53.1684 144.856 52.7317 144.627 52.3324C144.404 51.9445 144.097 51.505 143.748 51.2712L143.738 51.2644L143.727 51.2582C143.577 51.1679 143.41 51.1087 143.236 51.0843L143.217 51.0816L143.197 51.0804C142.742 51.0527 142.465 51.3563 142.333 51.5901C142.204 51.8183 142.146 52.0797 142.132 52.2746C142.094 52.6102 142.078 52.948 142.086 53.2857C142.086 53.588 142.11 53.8898 142.158 54.1883L142.166 54.2404L142.185 54.2897C142.262 54.4894 142.315 54.6979 142.343 54.9105C142.335 54.9807 142.307 55.0464 142.262 55.0989C142.214 55.1551 142.15 55.1928 142.081 55.2078C141.744 55.2435 141.405 55.2496 141.068 55.2262L141.05 55.225H141.033H140.496H140.475L140.455 55.2267C140.319 55.238 140.183 55.2327 140.049 55.2109C139.984 55.1969 139.903 55.1532 139.848 55.0941C139.825 55.0698 139.814 55.0501 139.809 55.0381C139.838 54.9636 139.876 54.8926 139.921 54.8264L139.925 54.8197L139.929 54.813C140.075 54.5817 140.202 54.3391 140.309 54.0876L140.324 54.052L140.334 54.0145C140.427 53.6483 140.462 53.2695 140.437 52.8923V43.9552V43.9478C140.437 43.6593 140.437 43.3764 140.417 43.069C140.453 42.7112 140.414 42.3495 140.303 42.0073L140.291 41.9714L140.274 41.9376C140.19 41.7706 140.092 41.6115 139.98 41.4623C139.923 41.3719 139.871 41.2784 139.824 41.1823C139.818 41.148 139.819 41.1126 139.827 41.0786C139.833 41.0742 139.845 41.0668 139.866 41.0581C139.937 41.029 140.038 41.0113 140.163 41.0011C140.603 40.9731 141.033 40.9823 141.484 40.9921C141.721 40.9972 141.964 41.0024 142.217 41.0024H143.313V41.0026L143.324 41.0023C143.641 40.9951 143.958 41.0083 144.274 41.0419C144.666 41.1159 145.048 41.2384 145.411 41.4067C145.884 41.676 146.29 42.052 146.599 42.5065C146.91 42.9662 147.113 43.4933 147.191 44.0467L147.196 44.0881L147.209 44.128C147.248 44.2528 147.278 44.3806 147.297 44.5102L147.298 44.5178L147.3 44.5253C147.385 45.0014 147.342 45.492 147.173 45.9445L147.167 45.9601L147.163 45.9761C147.056 46.3363 146.897 46.6784 146.692 46.9917C146.516 47.2377 146.331 47.4542 146.133 47.6876C146.03 47.8082 145.923 47.9333 145.812 48.0693L145.812 48.0693L145.808 48.0741C145.576 48.3655 145.405 48.702 145.307 49.0625L145.305 49.0702L145.303 49.078C145.216 49.4454 145.24 49.8308 145.373 50.1843ZM145.628 45.267V45.2666C145.628 44.459 145.372 43.4051 144.437 42.9033L144.392 42.8791L144.343 42.8645C144.32 42.8578 144.298 42.8478 144.278 42.8347L144.228 42.8024L144.171 42.7827C143.911 42.6924 143.633 42.6713 143.362 42.7216C143.092 42.7719 142.839 42.8917 142.629 43.0689L142.588 43.1031L142.556 43.145C142.399 43.347 142.278 43.5741 142.196 43.8167C142.114 44.0576 142.082 44.313 142.102 44.5665C142.082 44.7957 142.082 45.0378 142.082 45.2538L142.082 45.2666V45.2745C142.082 45.5845 142.082 45.9158 142.103 46.247C142.09 46.4653 142.125 46.684 142.205 46.8879C142.289 47.1047 142.423 47.2991 142.596 47.4553C142.769 47.6115 142.975 47.7251 143.2 47.7867C143.425 47.8482 143.661 47.8558 143.889 47.8087L143.928 47.8006L143.965 47.7864C144.47 47.5947 144.896 47.2399 145.178 46.779C145.472 46.3301 145.628 45.8044 145.628 45.267Z" fill="#BE4C40" stroke="#BE4C40"/>
<path d="M155.838 41.1498L155.838 41.1499L155.845 41.1424C155.891 41.0965 155.963 41.0583 156.112 41.0364C156.222 41.0201 156.316 41.0176 156.433 41.0146C156.504 41.0128 156.583 41.0108 156.68 41.0052C157.069 40.9829 157.474 40.9626 157.851 40.9831C158.023 40.9924 158.182 41.0235 158.299 41.0794C158.393 41.1245 158.443 41.1757 158.47 41.2417C158.507 41.469 158.511 41.7007 158.482 41.9293L158.477 41.97L158.479 42.0109C158.5 42.5521 158.567 43.0903 158.681 43.6194C158.766 44.079 158.872 44.5477 158.976 45.0043C159.031 45.2484 159.086 45.4891 159.136 45.7231L159.136 45.7231L159.136 45.7253C159.193 45.9832 159.251 46.2401 159.308 46.496C159.43 47.0333 159.55 47.5663 159.653 48.0961L159.653 48.0961L159.655 48.1089L159.656 48.1114C159.893 49.1777 160.13 50.2501 160.387 51.3012C160.413 51.4249 160.439 51.5642 160.466 51.7108C160.518 51.9908 160.575 52.2973 160.647 52.5725C160.726 52.946 160.823 53.3153 160.938 53.679L160.944 53.6966L160.951 53.7138C161.068 54.0069 161.211 54.2889 161.378 54.5562L161.394 54.5812L161.412 54.6041C161.52 54.7381 161.588 54.9012 161.607 55.0742C161.607 55.0821 161.606 55.0898 161.603 55.0967L161.595 55.1142L161.594 55.1174C161.586 55.1235 161.569 55.1342 161.537 55.1475C161.459 55.1797 161.353 55.2001 161.244 55.2101H160.231H160.214L160.197 55.2113C159.916 55.2307 159.633 55.2318 159.352 55.2148C159.301 55.1969 159.252 55.1707 159.208 55.1369C159.169 55.1065 159.134 55.0704 159.104 55.0296C159.069 54.8716 159.058 54.7088 159.071 54.547L159.075 54.5023L159.07 54.4578C159.023 53.9726 158.79 53.6036 158.452 53.3607C158.135 53.1324 157.752 53.0327 157.397 53.0046C156.966 52.9491 156.528 53.0054 156.124 53.168L156.093 53.1806L156.064 53.1972C155.778 53.3602 155.538 53.5935 155.366 53.8749L155.357 53.8902L155.348 53.9062C155.227 54.1418 155.164 54.4036 155.165 54.6687C155.156 54.7954 155.104 54.914 155.019 55.0041C154.931 55.0967 154.815 55.1528 154.692 55.1639L154.692 55.1639L154.689 55.1642C154.322 55.1994 153.953 55.2135 153.585 55.2065L153.575 55.2063L153.565 55.2065C153.413 55.2096 153.261 55.2031 153.109 55.187L153.048 55.1804L152.986 55.1891C152.872 55.2053 152.756 55.2027 152.643 55.1815C152.594 55.159 152.549 55.1274 152.51 55.0879C152.512 55.0839 152.514 55.0794 152.516 55.0744C152.552 54.9956 152.625 54.9025 152.721 54.7938C153.077 54.3937 153.336 53.9149 153.476 53.3963C153.557 53.1164 153.621 52.8061 153.681 52.5161C153.716 52.3485 153.749 52.1877 153.784 52.0436L153.784 52.0419C153.792 52.0073 153.8 51.9726 153.808 51.9379C153.929 51.4255 154.051 50.9063 154.188 50.4039C154.279 50.0901 154.353 49.7666 154.424 49.4606C154.454 49.3285 154.484 49.1996 154.513 49.0763C154.561 48.8868 154.595 48.6989 154.626 48.5289L154.628 48.522C154.66 48.3444 154.689 48.1856 154.728 48.0301L154.732 48.0139L154.735 47.9976C154.755 47.8876 154.78 47.7762 154.807 47.6542L154.808 47.6502C154.833 47.5365 154.86 47.4135 154.883 47.2887C155.224 45.855 155.572 44.3685 155.85 42.9234C155.941 42.5406 155.94 42.1414 155.847 41.759L155.839 41.7238L155.825 41.6902C155.766 41.5426 155.757 41.3788 155.799 41.225L155.801 41.2181L155.803 41.2111C155.809 41.1869 155.821 41.1658 155.838 41.1498ZM161.6 55.1118C161.6 55.1118 161.6 55.1126 161.598 55.114C161.599 55.1125 161.6 55.1117 161.6 55.1118ZM157.192 48.3305H157.164L157.136 48.3336C156.939 48.3557 156.752 48.4322 156.596 48.5541C156.461 48.6594 156.353 48.795 156.281 48.9491C156.092 49.2133 155.991 49.5309 155.991 49.8567C155.991 50.2063 156.108 50.5464 156.324 50.8214L156.342 50.8447L156.363 50.8657C156.563 51.0663 156.834 51.182 157.118 51.1865L157.118 51.1865L157.123 51.1865C157.348 51.188 157.569 51.1247 157.76 51.0048L157.494 50.5815L157.76 51.0048C157.951 50.8849 158.104 50.7134 158.201 50.5109L158.22 50.4726L158.231 50.4316C158.317 50.134 158.338 49.8215 158.295 49.5152V49.4232V49.3363L158.265 49.2544C158.202 49.0785 158.09 48.8729 157.937 48.7021C157.795 48.5428 157.541 48.3305 157.192 48.3305Z" fill="#BE4C40" stroke="#BE4C40"/>
<path d="M164.407 42.93L164.399 42.932L164.391 42.9343C164.387 42.9357 164.382 42.9365 164.377 42.937C164.368 42.9315 164.348 42.9161 164.32 42.8777C164.296 42.8445 164.274 42.8038 164.258 42.761C164.242 42.7174 164.235 42.6815 164.233 42.6596C164.213 42.3765 164.213 42.1087 164.213 41.8213H164.213L164.213 41.8135C164.21 41.6351 164.245 41.4583 164.314 41.2951C164.363 41.2044 164.434 41.13 164.52 41.0792C164.67 41.0291 164.828 41.0067 164.986 41.0131L165.005 41.0139L165.024 41.0132C165.416 40.9988 165.807 41.0036 166.207 41.0085C166.413 41.011 166.621 41.0135 166.833 41.0135H169.934H169.951L169.968 41.0124C170.201 40.9967 170.435 41.0094 170.665 41.0503L170.665 41.0505L170.678 41.0524C170.87 41.0813 170.958 41.164 171.019 41.2806C171.095 41.4252 171.136 41.6438 171.137 41.9237C171.126 42.2261 171.087 42.5268 171.022 42.8221C171.014 42.8527 170.996 42.8783 170.973 42.8954C170.956 42.9084 170.936 42.9162 170.916 42.9185C170.843 42.9022 170.764 42.8773 170.658 42.8436L170.647 42.8401C170.537 42.8048 170.395 42.7594 170.247 42.7312C169.904 42.6602 169.548 42.7135 169.24 42.8812C168.931 43.0497 168.692 43.3225 168.563 43.6501L168.552 43.6793L168.544 43.7096C168.456 44.0539 168.429 44.411 168.464 44.7646C168.477 45.0962 168.47 45.4283 168.442 45.7589L168.442 45.7589L168.441 45.7723C168.433 45.9211 168.415 46.0693 168.394 46.2366C168.391 46.2668 168.387 46.2976 168.383 46.3291C168.359 46.5269 168.335 46.7492 168.335 46.9782V51.4572C168.335 51.6065 168.332 51.7604 168.33 51.918C168.316 52.7293 168.301 53.6374 168.625 54.513L168.63 54.5254L168.635 54.5375C168.696 54.6787 168.721 54.8333 168.707 54.9869C168.69 55.0384 168.661 55.0842 168.623 55.1204C168.585 55.1568 168.538 55.182 168.489 55.1945C168.112 55.2161 167.751 55.2361 167.392 55.2361C167.085 55.2361 166.827 55.2358 166.569 55.2154L166.549 55.2139H166.529C166.507 55.2139 166.458 55.2067 166.395 55.1805C166.334 55.1549 166.28 55.1196 166.241 55.0839C166.226 55.0696 166.216 55.0578 166.21 55.049L166.235 55.0002L166.248 54.9237C166.249 54.9188 166.251 54.9151 166.253 54.9128L166.307 54.8538L166.339 54.781L166.457 54.5176C166.632 54.2061 166.738 53.86 166.768 53.5033L166.769 53.5033L166.769 53.4909C166.803 52.9174 166.799 52.3614 166.795 51.8214C166.793 51.6452 166.792 51.4707 166.792 51.2979V46.9209C166.813 46.5072 166.814 46.1162 166.814 45.7388C166.863 45.342 166.894 44.943 166.905 44.5432C166.917 44.2579 166.866 43.9734 166.756 43.71C166.648 43.4523 166.486 43.2208 166.281 43.0318C166.127 42.8711 165.925 42.7638 165.704 42.7268C165.41 42.6608 165.139 42.7107 164.932 42.767C164.832 42.7941 164.735 42.8266 164.653 42.8539C164.647 42.8557 164.642 42.8574 164.637 42.8592C164.546 42.8893 164.474 42.9127 164.407 42.93Z" fill="#BE4C40" stroke="#BE4C40"/>
<path d="M180.811 55.1929L180.801 55.1935L180.791 55.1945C180.319 55.2437 179.841 55.2049 179.382 55.0799C176.366 54.2496 175.206 51.4713 175.206 48.2899V48.2508L175.199 48.2122C175.186 48.1278 175.181 48.0422 175.183 47.9567L175.184 47.942L175.183 47.9273C175.149 46.7081 175.341 45.4932 175.75 44.3465C176.014 43.6128 176.453 42.9574 177.026 42.4378C178.07 41.5863 179.123 41.0515 180.402 41.0508C181.301 41.0601 182.18 41.3202 182.943 41.8031C184.729 42.9366 185.457 44.6201 185.664 46.8159C185.695 47.2515 185.691 47.6928 185.687 48.1494C185.686 48.3031 185.684 48.4584 185.684 48.6159C185.612 50.2301 185.141 51.7998 184.315 53.1809C184.009 53.6635 183.439 54.1518 182.764 54.5338C182.088 54.9164 181.369 55.1566 180.811 55.1929ZM177.001 45.2489L176.997 45.2622L176.993 45.2758C176.859 45.8164 176.754 46.3643 176.68 46.9168C176.542 47.7812 176.549 48.6631 176.701 49.525C176.744 49.9569 176.82 50.3847 176.929 50.8046L176.932 50.8184L176.936 50.832C177.189 51.6188 177.563 52.3464 178.139 52.8799C178.726 53.4247 179.49 53.7356 180.449 53.7356C181.576 53.7356 182.417 53.3009 183.013 52.5927C183.592 51.9061 183.916 50.9934 184.106 50.0605L184.106 50.059C184.133 49.9242 184.146 49.7874 184.157 49.6791L184.157 49.6692C184.169 49.5494 184.178 49.4607 184.194 49.381C184.195 49.3741 184.197 49.367 184.198 49.3597C184.24 49.1515 184.309 48.8079 184.31 48.5011C184.316 48.0043 184.28 47.508 184.2 47.0178C184.119 46.0293 183.829 44.8691 183.25 43.9374C182.66 42.9878 181.735 42.2328 180.416 42.2328L180.415 42.2328C180.216 42.2331 180.017 42.2526 179.822 42.2911C179.804 42.2902 179.785 42.2901 179.767 42.2908C179.704 42.2933 179.641 42.3057 179.582 42.3275C178.181 42.6934 177.356 44.0973 177.001 45.2489Z" fill="#BE4C40" stroke="#BE4C40"/>
<path d="M195.997 50.0086C196.256 50.6421 196.6 51.2312 196.903 51.861C197.252 52.7155 197.715 53.5171 198.28 54.2431C198.452 54.4617 198.733 54.658 198.799 54.9433C198.905 55.4471 198.434 55.7065 198.003 55.7287C197.721 55.7509 197.444 55.7509 197.14 55.7509C196.803 55.7655 196.465 55.7581 196.129 55.7287C195.923 55.7056 195.725 55.6386 195.548 55.5323C195.244 55.3804 195.16 55.0285 195.073 54.7247C194.985 54.4209 194.967 54.0023 194.835 53.6541C194.664 53.0872 194.123 52.0166 193.63 51.6869C193.537 51.631 193.434 51.5945 193.326 51.5794C192.961 51.5572 192.808 52.0388 192.789 52.3204C192.753 52.6388 192.738 52.9594 192.746 53.2799C192.746 53.5578 192.768 53.8353 192.811 54.1097C192.909 54.3621 192.974 54.626 193.005 54.8951C192.999 55.0898 192.928 55.2766 192.802 55.4238C192.676 55.571 192.504 55.6695 192.314 55.7027C191.942 55.7435 191.567 55.7509 191.193 55.725H190.656C190.477 55.7399 190.296 55.7325 190.119 55.7027C189.775 55.6361 189.388 55.31 189.472 54.9396C189.519 54.8004 189.584 54.6683 189.666 54.5469C189.797 54.3379 189.912 54.1186 190.009 53.8912C190.091 53.5709 190.12 53.2393 190.097 52.9094V43.9552C190.097 43.6477 190.097 43.3661 190.075 43.0587C190.111 42.7569 190.081 42.4508 189.987 42.1621C189.914 42.0159 189.827 41.877 189.728 41.7472C189.648 41.6212 189.576 41.49 189.512 41.3545C189.469 41.2121 189.469 41.0598 189.512 40.9173C189.618 40.5913 190.009 40.5247 190.287 40.5024C190.977 40.458 191.686 40.5024 192.377 40.5024H193.473C193.818 40.4946 194.163 40.5094 194.506 40.5469C194.953 40.6294 195.388 40.7688 195.8 40.9618C196.347 41.2699 196.817 41.7026 197.172 42.2258C197.527 42.749 197.758 43.3486 197.846 43.9774C197.893 44.1274 197.928 44.281 197.952 44.4368C198.053 45.0008 198.001 45.5822 197.802 46.1187C197.68 46.5287 197.499 46.9182 197.265 47.2746C196.983 47.6673 196.662 48.0155 196.359 48.386C196.169 48.6238 196.03 48.8987 195.95 49.1936C195.886 49.4641 195.902 49.7476 195.997 50.0086ZM195.266 45.2666C195.266 44.5257 195.029 43.7144 194.338 43.3439C194.27 43.3237 194.205 43.2937 194.145 43.255C193.967 43.1932 193.776 43.1787 193.592 43.2131C193.407 43.2475 193.234 43.3296 193.089 43.4514C192.966 43.6093 192.871 43.7872 192.808 43.9774C192.743 44.1663 192.72 44.3676 192.742 44.5665C192.72 44.785 192.72 45.0258 192.72 45.2666C192.72 45.5927 192.72 45.9224 192.742 46.2484C192.729 46.404 192.751 46.5605 192.808 46.7057C192.865 46.8508 192.954 46.9805 193.069 47.0844C193.184 47.1884 193.321 47.2637 193.47 47.3044C193.619 47.3452 193.775 47.3502 193.926 47.319C194.328 47.1662 194.668 46.882 194.894 46.5114C195.136 46.1429 195.266 45.7098 195.266 45.2666Z" fill="#BE4C40"/>
<path d="M192.16 63.8679V63.868L192.17 63.8679C193.806 63.862 195.441 63.957 197.066 64.1524C197.48 64.2154 197.834 64.2963 198.103 64.3824C197.782 64.4571 197.346 64.5188 196.824 64.5663C196.051 64.6365 195.16 64.6705 194.321 64.6946L194.32 64.6946C153.576 65.8798 112.302 66.0835 71.3926 65.2983L71.3925 65.2983C69.9347 65.2705 68.4754 65.2415 67.015 65.2124C56.3968 65.0009 45.7214 64.7883 35.1363 65.0687L35.1361 65.0687C32.9343 65.1276 30.7395 65.2071 28.5479 65.2865C23.2745 65.4776 18.0199 65.668 12.7324 65.5688C9.8452 65.5011 7.0046 65.3578 4.1678 65.2148C4.06228 65.2095 3.95677 65.2041 3.85126 65.1988L3.84402 65.1985L3.83678 65.1983C2.64239 65.1728 1.4518 65.0524 0.275935 64.8383C0.259576 64.8344 0.243464 64.8304 0.227597 64.8266C1.27339 64.6218 3.01797 64.4506 5.00726 64.3113C8.35601 64.0767 12.2707 63.9395 14.4364 63.8635C15.1337 63.8391 15.6497 63.821 15.9071 63.808L15.9072 63.808C17.6481 63.7201 19.3863 63.628 21.1246 63.536C27.9591 63.1741 34.7942 62.8122 41.7958 62.6972L41.7958 62.6972C50.7151 62.5497 59.6184 62.8137 68.5217 63.0777C71.0078 63.1514 73.4939 63.2251 75.9803 63.2898C95.2397 63.7939 114.627 63.7688 134.026 63.7026C135.665 63.697 137.303 63.6911 138.941 63.6853C156.705 63.6214 174.471 63.5576 192.16 63.8679ZM-0.585049 64.5511C-0.587241 64.5494 -0.586663 64.5496 -0.584077 64.5519C-0.584466 64.5516 -0.58479 64.5513 -0.585049 64.5511ZM-0.59826 65.0643C-0.598284 65.0643 -0.597768 65.0639 -0.596642 65.0631C-0.597673 65.0639 -0.598236 65.0643 -0.59826 65.0643Z" fill="#BE4C40" stroke="#BE4C40"/>
</g>
<defs>
<clipPath id="clip0_58_1095">
<rect width="200" height="66" fill="white"/>
</clipPath>
</defs>
</svg>
